<svg width="120" height="120" fill="none" xmlns="http://www.w3.org/2000/svg"><path d="M118.191 74.514c-8.013 32.143-40.569 51.705-72.716 43.69C13.342 110.19-6.22 77.632 1.797 45.492 9.807 13.345 42.363-6.218 74.5 1.795c32.144 8.014 51.705 40.575 43.691 72.72z" fill="#F3BA2F"/><path fill-rule="evenodd" clip-rule="evenodd" d="M60 38.08L44.463 53.617v-.001l-9.039-9.04L60 20l24.584 24.583-9.04 9.04L60 38.08zM29.04 50.958L20 60l9.04 9.038 9.04-9.04-9.04-9.04zm15.423 15.426L60 81.92l15.544-15.543 9.044 9.035-.004.005L60 100 35.424 75.424l-.013-.013 9.052-9.027zm46.497-15.42l-9.04 9.04 9.04 9.04 9.04-9.04-9.04-9.04z" fill="#fff"/><path d="M69.169 59.995h.003L60 50.822 53.22 57.6l-.779.78-1.606 1.606-.013.012.013.014L60 69.177l9.173-9.173.004-.005-.008-.005" fill="#fff"/></svg>