<svg width="120" height="120" fill="none" xmlns="http://www.w3.org/2000/svg"><path d="M118.205 74.514c-8.013 32.143-40.57 51.705-72.716 43.69C13.355 110.19-6.206 77.632 1.81 45.492 9.82 13.345 42.376-6.218 74.513 1.795c32.145 8.014 51.706 40.575 43.691 72.72h.001z" fill="#F7931A"/><path fill-rule="evenodd" clip-rule="evenodd" d="M86.465 51.451c1.194-7.984-4.885-12.276-13.198-15.14l2.697-10.816-6.584-1.64-2.625 10.531c-1.731-.432-3.509-.838-5.275-1.242l2.644-10.6-6.58-1.64-2.698 10.811c-1.433-.326-2.84-.648-4.204-.988l.007-.034-9.08-2.267-1.75 7.032s4.884 1.12 4.781 1.189c2.666.665 3.148 2.43 3.068 3.83l-3.071 12.321c.183.047.421.114.684.22l-.19-.048h-.001c-.163-.04-.331-.083-.505-.124l-4.305 17.26c-.326.81-1.153 2.027-3.017 1.565.066.096-4.786-1.194-4.786-1.194l-3.268 7.536 8.567 2.136c.939.236 1.866.477 2.784.716h.001c.641.168 1.278.334 1.91.495L39.746 92.3l6.576 1.641 2.699-10.824c1.796.488 3.54.938 5.247 1.362l-2.69 10.773 6.585 1.64 2.724-10.92c11.227 2.126 19.67 1.269 23.222-8.886 2.864-8.176-.142-12.892-6.049-15.967 4.302-.992 7.543-3.822 8.407-9.667l-.002-.001zM71.422 72.546c-1.867 7.5-13.609 4.4-18.98 2.98-.484-.127-.916-.241-1.284-.332L54.773 60.7c.45.112.998.235 1.62.374 5.556 1.248 16.941 3.802 15.029 11.472zM57.507 54.348c4.479 1.195 14.25 3.803 15.95-3.015h.001c1.738-6.973-7.757-9.075-12.395-10.102a56.82 56.82 0 01-1.358-.31l-3.277 13.144c.31.077.672.174 1.08.283z" fill="#fff"/></svg>