<svg width="120" height="120" fill="none" xmlns="http://www.w3.org/2000/svg"><circle cx="60" cy="60" r="60" fill="#988430"/><circle cx="60" cy="60" r="58.078" fill="#7A6A2A"/><circle cx="60" cy="60" r="56.854" fill="#BA9F33"/><path fill-rule="evenodd" clip-rule="evenodd" d="M26.233 53.592c-.34-.31-.699-.621-1.03-.931-.33-.31-.669-.622-1.008-.932l-1.01-.96c-.165-.166-.34-.31-.505-.477-.165-.145-.36-.31-.524-.456-1.34-1.271-2.688-2.543-4.01-3.816a759.797 759.797 0 014.078 3.767l.476.477c.165.164.34.31.504.475l1.01.932c.34.31.67.621 1.01.96.34.339.67.65 1.01.96l-.001.001zM8.447 53.4s4.873.505 7.252.845c2.204.31 9.097 1.369 9.097 1.369L8.446 53.4zm0 0c1.369.117 2.738.262 4.107.408.698.068 1.368.145 2.039.213l1.028.117 1.01.145 4.078.65 2.038.34c.67.117 1.34.244 2.04.36a48.155 48.155 0 01-2.04-.262l-2.038-.291-4.078-.602c-.34-.049-.67-.117-1.01-.165l-1.029-.118c-.67-.068-1.369-.166-2.04-.244a118.87 118.87 0 01-4.106-.553v.002zm15.864 3.483s-5.204 1.321-6.961 1.826c-1.728.476-6.962 2.068-6.962 2.068l13.922-3.893h.001z" fill="#CFB66C"/><path fill-rule="evenodd" clip-rule="evenodd" d="M24.31 56.883c-1.155.34-2.304.67-3.476.981l-3.475.932c-1.156.34-2.304.67-3.456 1.01l-1.728.476c-.573.165-1.155.31-1.748.476.573-.192 1.156-.389 1.729-.554l1.727-.553c1.156-.36 2.305-.7 3.457-1.058 1.174-.292 2.33-.603 3.504-.884 1.116-.282 2.291-.563 3.466-.825zm-13.193 7.098c.572-.214 7.174-3.291 8.708-4.01.768-.36 3-1.152 3-1.152l-11.708 5.162z" fill="#CFB66C"/><path fill-rule="evenodd" clip-rule="evenodd" d="M11.117 63.98c.504-.191.98-.426 1.465-.65l1.437-.67 2.884-1.388c.96-.456 1.893-.96 2.883-1.389a19.32 19.32 0 011.514-.552l.768-.243c.262-.068.505-.146.768-.214-.96.457-1.97.845-2.931 1.291-.96.476-1.942.865-2.933 1.292l-2.932 1.29c-.984.4-1.944.826-2.924 1.234zm.64 2.689s5.98-3.505 8.038-4.631c1.078-.602 4.563-2.33 4.563-2.33l-12.601 6.96z" fill="#CFB66C"/><path fill-rule="evenodd" clip-rule="evenodd" d="M11.757 66.67c1.01-.621 2.039-1.252 3.068-1.893l1.536-.932c.524-.31 1.029-.602 1.563-.912.524-.312 1.03-.622 1.563-.913.254-.157.52-.293.796-.408l.816-.407c1.078-.525 2.155-1.059 3.291-1.515-1.029.65-2.087 1.204-3.145 1.776-.524.291-1.059.554-1.583.845-.524.291-1.03.602-1.564.884a36.17 36.17 0 01-1.562.883l-1.583.864-3.194 1.728h-.002zm12.553-6.194s-3.718 2.854-4.922 3.767c-1.204.912-4.748 3.476-4.748 3.476l9.67-7.243z" fill="#CFB66C"/><path fill-rule="evenodd" clip-rule="evenodd" d="M45.65 83.495l-1.902-3.602 1.106-4.505 7.894-3.048-3.36-6.893 1.66-6.961 3.117-6.234 9.631-1.514 7.078-6.748 15.282 1.156 3 16.34-5.778 20.572-3.29 10.651-13.34.505-6.194-4.291-7.253-3.03-7.65-2.398z" fill="#E2CC85"/><path fill-rule="evenodd" clip-rule="evenodd" d="M69.049 83.378s-1.845.845-4.992.65c-.91-1.222-7.289-1.795-7.289-1.795s-.796-.243-2.204.34c-1.417.576-2.757.505-4.01.815-1.252.31-2.496-1.32-3.456-1.66-.96-.36-2.233-1.223-2.233-1.223l-2.688-.263-5.397-2.281-8.576-8.543-2.33 3.647-.719 4.515 2.593 5.35 6.98 6.359 13.612 3.456 8.068-2.377 10.107-4.272 2.534-2.718z" fill="#F1D789"/><path fill-rule="evenodd" clip-rule="evenodd" d="M20.69 53.185l1.727-5.233 2.06-3.38 6.63-.553-1.99 5.806-5.544 9.865 2.301 8.805-4.077 2.039-1.254-1.922-1.009-4.408-.068-4.951 1.223-6.068z" fill="#F4ECB4"/><path fill-rule="evenodd" clip-rule="evenodd" d="M28.126 83.02l-1.272-1.777s-.34-.845-.145-1.583c.192-.747.165-.796.068-1.078-.097-.281-.913-1.252-.864-2.087.048-.845-.068-1.127.553-1.796.65-.65.456-1.777.456-1.777l.845.524.192-.29s.31.242.31.62c.068-.524-.213-2.951.427-3.504.641-.553 1.777 2.592 1.777 2.592l-.699-4.563-1.796-4.68-3.195-4.271-.192-4.71v-.407s-1.466 2.253-1.873 4.032c-.292 1.223.407 2.708.262 4.466-.117 1.748-.262 1.611.164 2.304.427.692 1.467 2.116 1.059 3.145-.36.884-1.583.263-1.583.263s-.242.718-.573.98c-.116-.427-.242-.699-.475-.96-.02.165-.068.389-.068.389s-.214-.67-.428-1.515c-.29-1.126-.601-2.611-.883-3.407a75.183 75.183 0 00-.407 1.844l.165 2.136.796 2.932.768 1.92.747 2.35.65 1.578.524 1.204.456 2.709 2.204 2.33 1.175.524.854-.437h.001z" fill="#F3E19D"/><path fill-rule="evenodd" clip-rule="evenodd" d="M21.845 48.913s-1.583 2.688-2.039 5.397c-.456 2.71-.864 5.574-.576 9.262.291 3.72.845 6 1.292 7.632.768 2.709 2.757 6.476 2.757 6.476l.068-.146a10.23 10.23 0 01-.797-1.99c-.262-1.03-.36-2.252-.602-2.806-.213-.553-.573-1.03-.747-1.709-.165-.65-.192-1.68-.7-2.446-.213-.311-.475-1.126-.553-1.942-.097-1.223.049-2.592-.068-3.718-.213-1.874-.359-3.146-.165-4.127.194-.98 1.205-3.766 1.826-5.98.408-1.418.165-2.612.912-3.845.748-1.223 1.205-2.3 1.37-3.048.191-.68-1.981 2.99-1.981 2.99h.003z" fill="#F2E8B0"/><path fill-rule="evenodd" clip-rule="evenodd" d="M29.35 47.835s-.816.243-1.204.67c-.389.408-.554.748-1.078 1.437-.524.69-.553 1.252-.98 2.116-.428.845-1.37 2.117-1.486 2.573-.117.456-.31 2.592-.553 3.602-.214 1.01.242 2.253.242 2.253l.553-.117s0 .718.554 1.204c.553.476.65-1.612.65-1.612l2.068-6.98 3.116-2.117.34-1.709-2.223-1.32z" fill="#F5EEC0"/><path fill-rule="evenodd" clip-rule="evenodd" d="M30.864 51s-1.466.097-2.184.622c-.291.213-.408.388-.718.65-.573.476-1.156.913-1.437 1.536-.311.62-.651 1.563-.884 3.34-.097.747-.097 1.436-.165 2.038-.097.816-.243 1.466-.165 1.92.097.932 1.058 1.418 1.152 2.476l1.99-1.01 1.874-7.388 3.98-2.496-2.252-2.524-1.194.832.003.004z" fill="#E6DB9D"/><path fill-rule="evenodd" clip-rule="evenodd" d="M20.363 100.754l.025-.22c.291-2.496.34-4.388.553-5.573.31-1.68.524-2.304.476-2.932-.068-1.01-.145-1.748-.048-2.525.145-1.029 1.155-2.252 1.126-3.096-.02-.67-.36-1.107-.65-1.515-.292-.407-.525-.747-.525-.747s1.99-1.37 1.971-6.884a.5.5 0 01.117.049l.98 2.785.67.816 2.573 4.796 3.311 3.214 4.893 3.291 3.068 3.339.31 8.903-4.01 5.204-.656 1.189a57.027 57.027 0 01-14.184-10.094z" fill="#E5CB7A"/><path fill-rule="evenodd" clip-rule="evenodd" d="M32.612 109.272s.068-1.107.98-1.826c.146.243.243.477.214.651.165-.291 1.32-2.155 3.932-2.641 2.612-.475 3.243-2.378 3.243-2.378l5.543-5.039 6.34-5.835 7.709-2.709 3.602-.884s.068.263-.067.845c.669-.048 2.154-.388 3.698-.932.621-.242 1.204-.34 1.515-.019.456.427.524 1.437.553 2.038.747-.165 1.611-.883 2.304-.815 1.107.117 2.088 1.418 3.214 1.418 1.485 0 2.155-.913 3.194-1.632.622-.427 1.514-.96 2.02-1.32 1.203-.884 13.941-4.777 13.941-4.777l4.466.291.719 4.796-.384 12.538-.143.138L78.9 111.786l-28.147 4.315a56.464 56.464 0 01-17.994-6.19l-.144-.64-.002.001z" fill="#D8C173"/><path fill-rule="evenodd" clip-rule="evenodd" d="M22.07 102.349c.4-.836.76-1.536.823-1.786.05.505.142 1.611.326 2.787a60.18 60.18 0 01-1.149-1.001z" fill="#F1D789"/><path fill-rule="evenodd" clip-rule="evenodd" d="M42.632 114.148l3.64-1.012.31.097s.166.098.166.427c.456-.262.844-.214 1.126-.388.145.311.29 1.34.932 1.466.67.146 1.388-.291 2.116-.844.718-.573 1.536-1.292 2.155-1.583.227.418.428.849.602 1.291.816-.65 2.233-3.291 4.252-3.243a7.662 7.662 0 012.805-3.388c1.874-1.272 3.048-1.369 4.515-1.253a7.731 7.731 0 012.116-1.893c.243.098.913.505 1.748.117.845-.388 1.796-1.893 3.048-2.087a2.946 2.946 0 011.942.407s3.648-3.621 6.165-4.825c-.097-.291-.291-1.388 2.66-3.816.165.146.049.554.165.576.048 0 .768-.31 1.68-1.01 1.126-.844 2.475-1.728 3.29-1.97 1.536-.457 3.166.475 3.166.475a1.46 1.46 0 01.456-.214c.388-.067.67-.116.883-.192-.019.505.263 1.37 0 2.117.304.17.626.307.96.407-.164.36-.524 1.272-1.126 1.71.505.242.573.523 1.291.767-.29.408-.768 1.107-.98 1.536-.214.457-.981 2.35-1.321 3.068-.36.719-.844 2.039-1.078 2.304-.233.265-1.078 1.388-1.728 1.941.576-.214 2.933-.932 3.932-1.204-.297.437-1.806 2.675-3.256 4.827a56.972 56.972 0 01-46.637 5.399l.005-.01z" fill="#E0CD81"/><path fill-rule="evenodd" clip-rule="evenodd" d="M31.104 50.738s-.844 0-1.01.117c-.164.116.846.36 1.156.476.31.116.98.65 1.155 1.077.165.408 6.068 2.786 6.068 2.786l4.175-.213 1.44-1.989-2.739-2.398 1.92-5.66-2.543.408-6.117 3.648-3.068 1.175-.437.573z" fill="#DFC57C"/><path fill-rule="evenodd" clip-rule="evenodd" d="M40.272 52.612a.655.655 0 00.576.31c.864 0 1.66.214 1.99.65.553.7 2.087 2.933 2.087 2.933l3.67 1.32.237-4.321-4.01-2.786-4.563 1.68v.213h.013z" fill="#E5CC7C"/><path fill-rule="evenodd" clip-rule="evenodd" d="M39.552 54.214s.67.048 1.514-.263c.845-.31 2.233-.98 2.835-.718.845.36.67 1.486 1.583 2.496.553.622 1.563.602 2.136 1.273.573.67 2.543.359 2.543.359l.748 4.032-3 3.845-.981 4.776h-4.056l-3.706-1.47-1.825-4.416.912-4.466 1.297-5.448z" fill="#D2C281"/><path fill-rule="evenodd" clip-rule="evenodd" d="M47.398 54.408c.101.03.206.047.31.048-.116.097-.359.31-.261.864.097.554.407 1.253.145 1.68.21.228.365.5.457.796.165.476.214.912 1.29.98a2.33 2.33 0 00-.426.34s.747.651 1.126 1.253c.388-.017 1.417-.337 1.417-.337l.214.146.456-.192s-.427-.165-.116-1.204c.29-.913.553-.864.576-.932.022-.068.213-1.029.213-1.417.146-.505.262-2.039.262-2.039l-.31-3.388-1.747-1.059-1.421-1.371-1.34 2.524-.883.88-.068 2.184.106.244z" fill="#E2C270"/><path fill-rule="evenodd" clip-rule="evenodd" d="M51.602 51.573s.31.883.427 1.563a1.49 1.49 0 00.068-.408s.243 1.34.29 1.894c.098-.02.193-.049.215.048.021.097.243 1.175.192 1.777a4.842 4.842 0 011.63-1.631c.389-.243.845-.505 1.321-.525.748-.02 1.291.476 2.184.476 2.155 0 4.107-1.582 5.544-2.068 1.058-.36 1.97-.621 2.611-1.204.311-.262.865-.844 1.37-1.709.67-1.152 1.368-2.155 2.068-2.28-.317.057-.639.08-.96.067 0 0 .214-.214.576-.505.362-.291.796-.65 1.417-.65 1.107 0 1.66.164 2.281.164.622-.019.98-.164.98-.164s.652.456 2.117.456c1.467.02 2.447.145 3.214.214.768.068 3.34-.214 4.078-.192.48.018.953.134 1.389.34l-2.38-6.912-8.544-7.469-5.088 3.602-7.826 7.825-7.572 2.806-1.583 1.777v2.708h-.02z" fill="#CCB360"/><path fill-rule="evenodd" clip-rule="evenodd" d="M68.593 47.611s.213-.213.572-.504c.358-.291.796-.65 1.417-.65 1.107 0 1.66.164 2.282.164.621-.019.98-.165.98-.165s.652.456 2.117.456c1.466.02 2.447.145 3.214.213.767.068 3.34-.213 4.077-.192.481.018.954.134 1.389.34l-1.078-3.117-1.252-2.378-3.573-3.913-4.32-2.544c-.02-.019-1.486-.407-1.486-.407l-3.884 2.35-3.524 9.116-.067 1.92 2.28 1.078c.573-.96 1.205-1.728 1.797-1.825-.534.058-.942.058-.942.058z" fill="#D5B457"/><path fill-rule="evenodd" clip-rule="evenodd" d="M68.544 48.262c-.34.02-.62-.048-.699-.29-.291-.816-.524-.933-.768-.933s-.573.524-.768.572c-.195.049-.427-.601-.427-.601l-.213-.097s-1.253.815-2.136 1.776c-.883.962-2.33 2.593-2.98 2.883-.65.291-2.884.389-3.649.554-.764.165-1.611.719-1.728.845-.116.126.34.262.409.388.068.116-.748.067-.816.192-.048.097.192.65.31.931a1.6 1.6 0 01.67-.165c.748-.019 1.292.477 2.184.477 2.156 0 4.107-1.583 5.544-2.069 1.059-.359 1.971-.621 2.612-1.204.31-.261.864-.845 1.369-1.709.369-.592.728-1.145 1.088-1.553l-.002.003z" fill="#D2B257"/><path fill-rule="evenodd" clip-rule="evenodd" d="M37.632 96.311s-.192-.719-1.971-2.573c-.505-.524-.816-.96-1.156-1.272-.844-.796-1.34-1.01-1.941-1.466-1.32-.98-2.757-.98-3.864-2.184-1.107-1.204-2.396-3.504-3.292-5.855-.883-2.35-1.127-3.097-1.127-3.165 0-.067.244-.524.554-.456.31.068.31.67.389.816.154.238.33.462.524.669.456.525 1.106 1.152 1.436 2.088-.067-.797-.34-1.68-.34-1.68s1.71 1.078 3.165 2.204c1.467 1.126 2.068 1.515 2.496 2.233.429.718 1.437 2.611 1.92 3.165.484.554 7.105 2.64 7.105 2.64l3.149 2.349 1.563 3.427-1.223 1.92-2.35.505-3.815-1.709-1.222-1.657v.001z" fill="#D2B159"/><path fill-rule="evenodd" clip-rule="evenodd" d="M29.155 84.505s.796 1.272 2.738 2.476c1.748 1.058 4.515 2.02 6.981 2.592 1.417.34 2.835.602 4.107.622 3.427.048 5.786-.932 8.709-1.253 1.582-.165 3.524-.291 5.543-.768 2.592-.621 4.126-1.32 6.214-2.304 1.514-.699 2.903-1.223 4.029-1.893 1.583-.932 2.738-1.97 4.078-2.281-.165.456-.34 1.272-1.66 2.117.699-.02 1.66-.068 1.66-.068s-.932.553-2.573 1.795c-1.01.768-2.35 2.068-3.718 2.932-.884.554-1.845.96-2.476 1.292-1.536.845-2.156 1.272-3.165 2.304.359-.02.388 0 .388 0s-1.272.165-2.184.65c-.192 0-.525-.068-1.107.097-.456.146-1.059.477-1.68.65-.883.263-1.174.147-1.174.147l.145.29s-1.152-.02-1.536.02c.068.02.049.049.049.049a.59.59 0 00-.192.067c-.185.12-.388.209-.602.262-.116.02-.213.02-.36.049.05.116.428.768.603 1.152a299.5 299.5 0 00-2.33 1.748c.067.106.123.22.165.34.068.213.097.524.165.669.164.291.262.34.262.34s-.262.048-.719.165c-.388.097-.864.262-1.536.359a6.095 6.095 0 01-.621.049c.097.213.524 1.029-.263 1.97-.786.942-1.029 1.079-1.272 1.68a2.594 2.594 0 00-.388-.243c-.262-.117-.622-.291-.748-.524-.073.311-.17.616-.29.912-.243.651-.602 1.292-.67 1.777-.263-.291-.748-.864-1.418-.747-.67.116-1.204 1.029-1.32 1.291 0-.165-.117-.291-.145-.097-.02.214-.389 2.446-2.447 4.252-.02-.456-.02-1.466-.068-1.796-.192.192-.427.476-1.825 1.078-1.37.601-1.152 1.204-1.152 1.204s-.117-.96.621-1.971c.748-1.01 1.204-1.486 1.204-1.563a.432.432 0 00-.097-.214c-.097-.097-.291-.214-.291-.291.116-.048 1.271-.602 1.203-1.748-.067-1.029-.504-1.563-.815-1.941-.048-.049.457-.408.389-.524-.05-.068-.67-.525-.748-.768.018-.146.05-.289.097-.427.068-.214.117-.36.098-.505-.05-.243-.311-.913-.389-.98.068.018.553 0 .553 0s-.388-.622-.456-.913c-.069-.292-.214-1.059-.291-1.204.165.019.572.048.572 0 .02-.146-.359-.389-.192-.576.117.019.34.116.553.388-.116-.31-.31-.912-.718-1.155.192-.068.844-.243 1.417.097.573.34.768.815.768.815s.34.262.865.65c.601.476 1.368 1.153 2.592 1.632.262.146.932.146 1.417.048a2.18 2.18 0 00.602-.242c.068-.04.14-.073.214-.098a4.656 4.656 0 00-.36-.602c.166 0 .36.02.36.02s.116-.262-.408-.768c.117-.116.262-.192.262-.388-.165-.02-.456-.262-.524-.36.097-.067.243-.29.408-.359-.146-.116-.505-.602-.67-.65.158-.058.31-.13.456-.213 0 0-.815-.214-1.077-.389-.263-.192-.65-.524-.884-.621-.243-.098-.67-.146-.844-.34.164.048.426 0 .62 0 .146 0 .215.019.263.019-.02-.068-.02-.214.36-.262.182-.027.358-.083.523-.165 0 0-.36-.02-.768-.408-.408-.388-.747-.698-.98-.747-.242-.049-.699.165-.98.145-.389-.048-.554-.242-.554-.242s-1.29.116-4.155-1.631c-2.476-1.515-3.554-2.855-3.554-2.855a4.25 4.25 0 01-.67-.31c-.931-.486-2.223-1.496-2.184-2.817l-.005.01z" fill="#C2A44D"/><path fill-rule="evenodd" clip-rule="evenodd" d="M64.874 26.233c.224.073.424.207.576.388.456.524.747 1.515-.291 2.573.407.145.575.192.931.145-.359.428-1.174 1.34-1.223 2.137-.048.65.36.845.36.845s-.622.718-.65 1.92c.293-.331.614-.637.96-.913.718-.573 1.708-1.223 2.378-1.63-.01.17.014.341.068.504 0 0 1.252-1.03 2.304-.573.475.214.262.884.262.884s.65-.243 1.107.213c.456.457 1.101 1.634 1.432 2.09.145.214.524.621.912 1.252.53.884.972 1.817 1.321 2.786.02-.505.145-1.29 1.583-.796 1.437.505 3.067 1.564 4.436 3.648 1.37 2.085 1.708 4.438 2.398 5.334.699.864 1.417 2.3 1.466 2.903.049.602-.214 2.543 1.223 7.796.408-1.63 1.03-5.253 1.03-5.253l.339-3.194.388-9.884-10.32-8.574-8.068-5.854-5.253.505.33.747z" fill="#CAA13E"/><path fill-rule="evenodd" clip-rule="evenodd" d="M84.049 40.941s-.146-.96-2.573-2.592c-2.428-1.611-4.32-1.611-6.068-2.98-1.34-1.078-2.738-3.554-3.648-4.37-.884-.805-1.029-3.135-1.029-3.135l2.98-2.496 4.433-6.407 3.747-4.126 1.796 2.495 2.496 2.932 1.388 5.884.505 8.612-4.032 6.184h.005z" fill="#B59544"/><path fill-rule="evenodd" clip-rule="evenodd" d="M87.049 51.264a10.943 10.943 0 00-.476-3.864c-.64-1.99-2.039-5.524-2.688-6.848-.263-1.466-.068-1.582.213-1.748.282-.165 1.34-.768 1.92-2.883.58-2.115 2.38-2.184 2.38-2.184l1.106-.815 1.68 4.203 1.466 3.797.456 2.903.34 2.475-.796 5.233-3.932 3.554-1.67-3.823z" fill="#C89D3A"/><path fill-rule="evenodd" clip-rule="evenodd" d="M32.185 109.593v-.107a.86.86 0 00.213-.192c.068-.098.117-.214.165-.243.098-.049.554-.192.796-.146.243.046.884.31 1.224.291.699-.019 1.514-.553 2.806-.31 1.942.359 2.398 1.679 3.524 2.427.768.525 1.563.291 1.68.291h.261c.05 0 .408-.408.603-.388.388.019.427.34.67.359.572.068 1.68-.291 2.233-.145.333.104.594.365.699.698.116.359.019.815-.263 1.078-.601.553-1.174 1.078-1.29 1.536.148.113.29.233.426.361a56.547 56.547 0 01-13.747-5.504v-.006z" fill="#CEB052"/><path fill-rule="evenodd" clip-rule="evenodd" d="M83.883 90.195s1.515-2.02 2.04-3.02c.524-1.031-1.66-14.087-1.66-14.087L88.65 58.71l-.117-4.68s.213-4.32.718-6.194c.603 1.077 2.477 2.378 2.884 3.068.192-1.321.845-4.107.748-7.078.359.553 1.223 6.116 1.223 6.116l.864 3.748 1.126 3.98 1.253 4.205.747 2.903.427.698.36 1.224.34 1.32.98 3.097.576 2.544.457 4.612c.099.353.17.713.213 1.077.019.505-.068.797-.068.884 0 .088.166 1.107.098 1.874-.098.768-.098 1.37-.7 1.92-.602.551-.98 3.845-.98 3.845l-1.078-.718s.214-.982-.291-1.874c-.505-.893-1.486-1.078-2.04-.932-.552.116-1.659.29-2.019.601-.34.31-1.174 1.272-1.941 1.71-.96.575-2.524.62-3.359.815-.845.192-1.777.768-2.758 1.436-.769.498-1.581.927-2.427 1.28l-.004.004z" fill="#CCA847"/><path fill-rule="evenodd" clip-rule="evenodd" d="M83.883 111.408s.065.042.188.11a57.03 57.03 0 0018.176-13.472c-.056-1.965-.128-3.98-.207-4.726-.165-1.582-.048-3.194-.097-4.126-.049-.931-.573-4.728-.815-5.709-.263-.98-.768-1.466-.845-1.466-.068.02-.476 1.845-.476 2.304 0 .46-.097 1.564-.097 1.845-.068-.02-.097-.192-.097-.262-.097.243-.214.67-.263.719-.048.048.068-.408 0-.505-.067-.098-.192-.049-.165-.291.012-.144.034-.287.068-.427 0 0-.291.427-.504 1.514-.214 1.078-.214 1.107-.291 1.204-.068.117-.457.505-.477.65-.019.262.36.525.389.67.02.243-.34 1.369-.456 1.92-.117.551-.068 1.63-.192 2.184-.098.505-.192.797-.524 1.01.242.048.475.116.475.116s.34 1.437-.524 2.66c-.31.427-.388.622-.718 1.01-.651.719-1.156 1.537-1.205 2.068a3.476 3.476 0 01-.068-.476s-1.009 1.175-1.436 1.845c-.553.864-1.32.816-1.536 1.029-.216.214-.263.602-.192.913-.192.048-.553.117-.796.864-.117.388-.408.768-.864 1.029-.457.261-1.01.34-1.292.408.242.068.34.068.456.145-.145.243-.815.622-1.563 1.107-.747.457-1.107 1.126-1.291 1.563-.192.408-.476.67-.932.719.192.116.476.388.621.476-.213.048-.576.048-1.223.602-.68.563-.912.728-1.223.777l-.004-.001z" fill="#C39D3C"/><path fill-rule="evenodd" clip-rule="evenodd" d="M70.374 115.907a5.452 5.452 0 011.199-.635c1.514-.602 3.116-.719 3.747-.912.603-.192 1.078-.457 1.826-.603l-.055.482a56.648 56.648 0 01-6.72 1.668h.003z" fill="#D2BA6B"/><path fill-rule="evenodd" clip-rule="evenodd" d="M98.304 76.078s-.31 1.68-.864 2.738-1.152 2.524-1.152 2.524c.004-.33.043-.66.117-.981-.7.408-2.399 1.389-2.88 1.825-.457.408-1.224 1.127-1.418 1.466.456-1.339.932-2.543 1.01-3.096-.699.504-3.962 3.194-5.66 4.97l-5.292 4.282c-.61.33-1.24.624-1.883.882-.912.388-1.99.718-2.786 1.03.214-.574.553-1.08 1.029-1.564.505-.476 2.019-2.117 2.252-2.88.214-.797.262-1.272-.02-1.942-.262.068-.863.097-1.27.214-.409.116-.846.552-.846.552s.31-1.776.98-3.456c-.504.02-1.368.165-1.368.165s1.204-2.02 3.264-3.427c-.631.135-1.248.326-1.845.573-1.203.505-2.524 1.252-3.504 1.66.553-.768 4.436-6.31 6.747-11.476 2.304-5.155 3.165-6.476 3.67-9.242.262-1.37.192-3.392.262-5.204.068-1.797.291-3.408.146-4.486.601.748 2.854 2.855 2.931 7.564.068 4.708-2.154 11.068-4.514 14.494.576.165 2.068.36 3.602-2.304 1.533-2.663 1.515-3.407 2.068-4.514.068.553.048.747.048.747s2.234-2.708 3.292-6.116c.214 1.466.845 2.758-.146 5.447-.883 2.427-2.038 3.02-2.038 3.02s.572-.098 1.416-.603c.146.36.118.768.36.913.243.144.573.388.622.621.261-.388.67-.884.796-1.252-.098.768-.165 4.126.192 5.835.748-.068 1.515-.117 2.039-1.467-.36 1.321-.36 2.117-.117 3.243.398-.271.758-.757.758-.757l.002.002z" fill="#C0993A"/><path fill-rule="evenodd" clip-rule="evenodd" d="M73.078 22.563s-.748.31-2.02.31c-1.106 0-.796-.426-2.524-.426-2.66 0-11.95 1.536-13.582 1.514-1.059-.02 3.572.456 3.572.456l11.836.165 2.378-.192.884-1.798-.544-.029z" fill="#A88F33"/><path fill-rule="evenodd" clip-rule="evenodd" d="M42.389 45.7s-1.515 1.154-2.156 2.038c-.64.884-.98 1.466-1.709 2.184.171.007.342-.016.505-.067 0 0 0 .192-.116.242a.68.68 0 01.553.192c-.214.117-.797.7-.34 1.389.34.524 1.058.572 1.058.572s-.165.476.525.428c1.485-.068 3.145-.719 3.912-.554.768.192 1.204.262 1.748 1.205.576.931 1.077 1.077 1.077 1.077s.34-.864.263-2.155a6.408 6.408 0 00.456-2.184l-.505-3.719-2.203-2.786-2.855 1.582-.213.553v.002z" fill="#E3C571"/><path fill-rule="evenodd" clip-rule="evenodd" d="M45.097 45.146s.214.505 1.107.553c-.097.213-.097.243-.068.407l.048.408a.903.903 0 00.263-.192c.048.214-.049.553 0 .796.03.148.078.292.145.427a.857.857 0 01.049-.097c.019-.048.192.525.67.96 0-.067.016-.133.048-.192.007.122.047.24.116.34a.355.355 0 01-.096-.068s.047 1.536.31 2.33a.992.992 0 00.116-.164c0-.049-.019.427-.067.767-.068.34-.02.816-.02.816.175-.138.368-.252.572-.34.292-.117.769-.476 1.06-1.272.168-.451.298-.916.388-1.388.093.18.158.375.192.576.02.242.476.116.476.116l.097-1.059.576-2.398.524-1.485 2.524-3.931 4.561-3.513 3.98.913 3.36-4.563-5.787-3.476-5.476.572-4.97 6.884-3.98 6.243-.718 1.03z" fill="#D8B65B"/><path fill-rule="evenodd" clip-rule="evenodd" d="M73.776 35.185s-.34.067-1.32.576c-.98.508-1.66.67-2.039 1.417-.379.747-.407 1.34-.407 1.34s.67-.291 1.058-.389c.408-.096.864-.067.815.098a1.125 1.125 0 01-.192.31s.768-.02.748.36c-.02.379-.145.796-.29.98-.147.192-.748.476-.816.7-.165.456.068.475-.02.844-.068.36-.388 1.058-1.437 2.281-1.077 1.224-1.536 2.088-1.536 2.088s-.524-.98-.796-1.825c-.192.096-1.223.67-1.223.67l-2.388-8.32.048-.554s.214-.262.262-.748c-.359-.116-.408-.214-.884-.67-.476-.455-.864-1.01-1.66-1.388-.116-.214-.262-.504-.844-.621-.582-.118-.932-.214-.932-.214s.31-.117.456-.36c-.36.05-.65.166-1.436.147-.796-.02-.884-.049-1.32.019-.437.068-.96.262-1.156-.408-.214-.165-.67-.02-1.059.553-.388.572-.524 1.03-1.271 1.253-.053.33-.168.645-.34.931-.214.36-.554.72-1.01 1.253-.719.845-.602 2.233-1.748 3.291-1.155 1.058.192-2.932.192-2.932l1.845-4.416 5.252-5.136 8.156-.553.796 4.224 3.98 1.369 2.515 3.835.001-.005z" fill="#D3AE4D"/><path fill-rule="evenodd" clip-rule="evenodd" d="M75.068 36.117l-3.427-4.942-2.398-1.845s-1.709-3.145-1.825-3.242c-.098-.068-1.71-.243-2.738-.31l.192.475c.224.073.424.207.576.388.456.525.747 1.515-.292 2.573.408.145.576.192.932.145-.359.428-1.174 1.34-1.223 2.137-.048.65.36.844.36.844s-.622.719-.651 1.92a7.77 7.77 0 01.96-.913c.719-.576 1.709-1.223 2.379-1.631-.01.171.014.342.068.505 0 0 1.252-1.03 2.304-.573.475.214.261.884.261.884s.651-.243 1.108.214c.456.456 1.106 1.63 1.437 2.087.145.214.524.622.912 1.252.53.884.972 1.817 1.32 2.787.02-.389.098-.932.768-.932l-1.02-1.825-.003.002z" fill="#CAA13E"/><path fill-rule="evenodd" clip-rule="evenodd" d="M23.69 50.155s-.243-.602 0-1.776c.242-1.175.621-1.728.747-3.456s1.253-3.884 1.253-3.884l3.116-1.417 2.204.602.65 2.952-2.786 1.536s-.146.65-.932 1.174c-.787.524-1.874.932-2.136 1.466-.156.328-.27.673-.34 1.03 0 0-.796-.166-1.271.358-.505.535-.486 1.01-.505 1.418v-.003z" fill="#F4EFC8"/><path fill-rule="evenodd" clip-rule="evenodd" d="M29.98 49.37s-.262.164-.456.575c-.192-.31-.65-2.155-.67-3.816-.019-1.66-.118-2.071.266-2.643.384-.573 1.89-1.175 1.676-2.206-.214-.98-1.107-1.388-2.204-1.106-.768.192-1.34 1.825-2.136 2.64-.602.622-1.32.524-1.514.864-.262.457-.02.913-.097 1.204-.02.097-.263.622-.7 1.253-.883 1.271-2.378 3.068-2.572 4.68.067-.913.02-.933.262-1.943l-.146-.242.96-3.146.621-2.592 1.39-4.34 2.445-4.437 2.38-2.66 2.475.165.29 3.718 1.419 6.981 2.98 3.67-4.777 3.215-1.893.165h.002z" fill="#EBCC73"/><path fill-rule="evenodd" clip-rule="evenodd" d="M31.466 50.688s-.408.097-.553.02c-.146-.078-.291-.165-.243-.263.048-.097.31-.261.31-.34a.272.272 0 00-.242-.29c-.223-.03-.291.116-.291.116s-.214-.165-.388-.192a2.47 2.47 0 01.31-.02 3.027 3.027 0 00-.845-.243c.243-.145.72-.572 1.03-.572.31 0 .505-.048.456-.214-.049-.165-.291-.407-.553-.505.096-.116.165-.29-.068-.768-.243-.475-.146-.796-.068-.912.068-.145.31-.407.427-.572.117-.165.214-.389.408-.505.097-.068.408-.192.719-.31.34-.117.62-.263.815-.117.214.145.116.34.116.34s.67-.244 1.272.068c.602.29 2.069.475 2.069.475l.525 1.059-3.476 2.98-1.437.719-.29.048-.003-.002z" fill="#E5C66B"/><path fill-rule="evenodd" clip-rule="evenodd" d="M36.291 45.816s-1.077.718-1.32.98c.145.02.388.117.29.263-.116.145-.815.65-1.203 1.126-.408.476-.797 1.078-.932 1.369-.145.262-1.253 1.03-1.63 1.126.795 0 2.397-.98 2.999-.98-.02.29.165.62.505.65.34.028 1.32.213 2.64-.602 1.32-.796.884-1.389 1.437-1.777 1.059-.7 1.486-1.32 2.068-1.708.582-.388.884-.477.884-.477s.02-.29.192-.261a.26.26 0 01.214.165s1.01-.719 2.304-.913a.134.134 0 01-.068-.068s.096-.048.116-.097c0 0 .068-.097.117-.049.048.049.116.408.213.554.214-.097.622-1.01.622-1.01l.981-2.806v-2.563l-.768.146-5.76 2.446-3.496 3.622-.407.864h.002z" fill="#E6BD62"/><path fill-rule="evenodd" clip-rule="evenodd" d="M52.873 33.243c.312-.076.61-.197.887-.36-.117.311-.117.651-.621 1.389-.506.738-.525.845-.932 1.611-.408.797-.457 1.942-.845 2.447.174-.085.36-.14.553-.165 0 0-.388.34-.553.699-.165.359-.456 1.107-1.175 1.564-.718.456-1.63.747-2.611 1.825-.982 1.058-1.99 2.398-2.496 2.88.262-.457.621-1.37.718-1.97.098-.602-.02-1.322.146-2.117.165-.796.165-1.37.96-2.758.794-1.389 2.155-6.214 2.155-6.214l2.932-.932.884 2.098-.002.003z" fill="#B6933F"/><path fill-rule="evenodd" clip-rule="evenodd" d="M50.757 31.466s-.883 1.272-1.126 2.398c-.242 1.127-.02 1.03-.165 1.583a2.064 2.064 0 000 1.03 3.653 3.653 0 011.222-1.205c.835-.505 1.515-.864 1.92-1.291.408-.456.748-1.204 1.63-1.777-.358-.048-.863-.214-.96-.192.36-.407 1.438-1.029 2.525-1.777 1.078-.767 1.01-1.077 2.758-1.844-.573.097-.845-.049-1.321 0 .192-.408.864-.602 1.536-1.272s-.427-1.66-.427-1.66l-5.12 3.097-2.476 2.913.004-.003z" fill="#C49937"/><path fill-rule="evenodd" clip-rule="evenodd" d="M36.864 29.155l.117-.932 1.466-2.349 1.534-4.126v-5.641l-.117-3.262.243-2.136.184-.68.195-.262 1.252.65 1.728 2.35.165 4.534-1.68 7.155-4.796 5.234-.291-.535z" fill="#DFC068"/><path fill-rule="evenodd" clip-rule="evenodd" d="M40.68 9.505s-.768.02-.932 3.214c-.164 3.194-.243 4.873-.36 6.456-.116 1.583-.388 2.543-.524 3.476-.136.932-.214 2.203-.65 2.98-.192.36-.603 1.486-1.564 2.33-1.078.932-2.688 1.583-2.932 1.632-.427.096-2.592.31-3.476.796-.31.165-.844.36-1.436.913-1.175 1.058-2.738 2.95-3.865 5.232-1.728 3.408-3.456 13.03-3.456 13.03l.389-.65s.049-.865.913-2.38c.844-1.514.602-3.213 1.776-6.116.456-1.107 1.03-2.544 1.728-3.767 1.107-1.99 2.447-3.7 3.797-4.631 2.203-1.515 4.63-1.845 4.63-1.845l2.612-1.728s.457-.883 1.059-1.893c.844-1.417 1.92-3 2.155-5.3.36-3.408-.505-5.641-.456-7.66.048-2.02.067-3.505.476-3.865.408-.36.116-.223.116-.223v-.001z" fill="#A88F33"/><path fill-rule="evenodd" clip-rule="evenodd" d="M40.68 24.747s1.152-2.835 1.68-5.35c.096-.504.29-1.008.339-1.416.242-2.38.31-3.36 0-4.66-.243-.96-1.174-1.826-1.66-2.497-.476-.7-.7-.96-.602-1.107.098-.147.476-.388.844-.359a2.89 2.89 0 012.069.96c.747.864 1.34 3.797 1.34 3.797l.622 3.869 1.583 4.874-6.214 1.893-.001-.004z" fill="#C99E3D"/><path fill-rule="evenodd" clip-rule="evenodd" d="M51.505 21.797s-.214.096-.602 0a.866.866 0 01-.388.815c-.408-.165-4.224.165-4.224.165s-1.777-.311-2.33-2.66c-.388-1.564.29-3.719.067-5.137-.34-2.087-.815-2.495-.864-3.145-.048-.65-.097-.815-.097-1.223-.214-.049-.34-.117-.553-.117-.049-.192.048-.36-.165-.7.116.05.913.147 1.844 1.03.768.719.768.98.884 1.126.145.146 1.32 1.152 1.826 2.156.504 1.004 1.485 4.204 1.708 4.728.068.213.214.427.576.912.564.7 1.388 1.856 2.32 2.048l-.002.002z" fill="#B58634"/><path fill-rule="evenodd" clip-rule="evenodd" d="M45.214 12c.588.95 1.117 1.936 1.582 2.952.573 1.29.913 2.35 1.632 3.213-.389-1.126-1.078-3.34-1.486-4.126-.456-.832-1.388-1.728-1.728-2.038V12z" fill="#A88F33"/><path fill-rule="evenodd" clip-rule="evenodd" d="M38.612 27.962s-.98.242-2.806 1.203c-.602.31-1.174.573-1.728.816-1.438.65-2.98 1.251-4.204 1.582.097.117.145.165.145.165s0 .476.263.747c-.146.146-2.088 1.467-1.515 5.884.388-.145.845-.34.913-.34.117.02.145.34.29.34.146 0 .622-.192 1.127-.845-.02.263-.31 2.903 1.252 4.68.292-.34 1.03-1.466 1.03-1.466l.019-.36s.068-1.252.476-2.398c.408-1.145 1.204-1.99 1.204-1.99l4.154-5.932-.621-2.087z" fill="#E6C367"/><path fill-rule="evenodd" clip-rule="evenodd" d="M34.728 36.672a2.3 2.3 0 01-.621.31c-.068-.242-.165-1.077.407-1.893.67-.98 2.136-2.253 2.544-3.264.262-.65.146-2.281 2.476-4.369 2.33-2.088 3.242-2.806 3.242-2.806l3.767-1.893 4.631 1.825-2.3 9.018-1.787 4.224-7.104-1.34-5.255.188z" fill="#DCBA5A"/><path fill-rule="evenodd" clip-rule="evenodd" d="M37.44 34.223l.884-1.106v-.787s.98-.262 2.038-1.34c1.058-1.078 2.524-3.145 3.816-3.02 1.291.146 1.418 2.806 1.466 3.555.049.748.214 2.446.476 3.359.29.913-3.146 4.368-3.146 4.368L40.64 41.03l-3.2-6.806z" fill="#E9CE77"/><path fill-rule="evenodd" clip-rule="evenodd" d="M40.175 43.437s.719-1.127.192-1.37c.31-.698.883-1.436.883-1.436s.408-1.01 1.728-2.252c1.32-1.243 2.136-2.069 2.35-2.903.132-.544.203-1.1.214-1.66.143.116.295.22.456.31.214.097 1.223.932 1.078 2.612-.145 1.68-.768 2.379-.768 2.379s-.602.601-1.029.912c-.457.31-.621.67-1.388.7a.92.92 0 01.262-.147s-.796-.096-1.224.292c-.427.387-1.336 1.582-1.792 1.942-.457.291-.96.621-.96.621h-.002z" fill="#CDAE50"/><path fill-rule="evenodd" clip-rule="evenodd" d="M72.456 24.553a11.692 11.692 0 00-3.572-.699c-2.04-.068-5.02.049-7.942.068-3.145.02-6-1.078-9.96-1.272-.651-.388-2.305-2.087-7.467 1.515.31-.02 3.748-.797 4.941.699 1.204 1.485.864 4.01.7 4.611-.311 1.34-1.321 3.292-1.728 4.66-.407 1.37-.311 2.089-.602 3.049-.292.96-.932 1.437-.554 2.543.505-.31.768-.31 1.611-2.203.844-1.893.67-3.243 2.069-4.845 1.369-1.612 3.648-3.816 4.515-4.37.866-.553 7.747-4.125 14.951-.717 1.738-.185 3.039-3.04 3.039-3.04z" fill="#D2A83E"/><path fill-rule="evenodd" clip-rule="evenodd" d="M46.417 23.232a.895.895 0 00-.048-.214 1.56 1.56 0 00-.262-.388s-1.709-.31-2.573-.214c-1.515.165-2.884 2.04-3.524 3-.641.962-1.437 2.447-2.301 3.214a.32.32 0 00-.049-.214s.049.068-.048.165c-.096.098-.097.146-.049.192l.146.146c.048 0 1.389-.603 3.214-2.305 1.942-1.776 3.427-2.688 4.204-3a5.914 5.914 0 011.29-.382z" fill="#C29637"/><path fill-rule="evenodd" clip-rule="evenodd" d="M79.564 15.932s-.312.388-.7.815c-.864.913-1.99 1.942-2.952 3-.912 1.01-1.94 1.797-3.097 3.117-1.156 1.32-2.496 2.786-2.835 3.213-.31.428-.553 1.127-.553 1.486-.165-.117-.359-.243-.359-.243.082.153.18.296.291.428.243.34.621.768.816 1.029.238.332.41.708.504 1.107.117.019.864.165 1.796-1.37.933-1.534 2.155-3.213 2.155-3.213l1.942-2.884 1.224-2.446 1.536-2.738.233-1.3h-.001z" fill="#AC8132"/><path fill-rule="evenodd" clip-rule="evenodd" d="M81.554 13.971s-1.175.96-1.632 1.536c-.456.576-1.535 2.088-1.535 2.088l.388-.049 1.971-1.747.768-1.369.04-.456v-.003z" fill="#A88F33"/><path fill-rule="evenodd" clip-rule="evenodd" d="M81.194 91.126s-.019-.796.428-1.271c.456-.476 1.611-1.175 2.738-3.797 1.126-2.621 1.252-3.213 1.252-3.213s-2.02 1.728-3.264 2.136c.29-.603.456-1.03.602-1.34-.165-.146-.864-.311-.932-.389.388-.388.602-1.34 1.388-1.97 1.01-.769 2.855-2.088 4.288-3.265 1.434-1.176 4.252-3.912 4.612-4.708.214.31.262.504.262.504s-1.417 1.845-2.155 3.02c-.651 1.01-.602 1.582-.602 1.582l1.34-.576s.388 1.437-1.37 3.622c.769-.291 1.079-.116 1.515-.36-.719.457-1.709 1.079-2.64 2.787-.913 1.709-2.156 3.7-4.253 4.941-2.039 1.311-3.214 2.292-3.214 2.292l.005.005z" fill="#A67A2E"/><path fill-rule="evenodd" clip-rule="evenodd" d="M75.932 25.564s-.796 1.66-.913 2.95c-.019.312-.097.554-.097.913-.019 1.155.068 2.447-.192 3.048-.097-.242-.146-.407-.243-.504-.145.408-.408 1.68-.621 2.155-.097-.31-.31-1.388-.291-2.66.02-1.271.048-1.515.048-1.776-.048.387-.31.912-.408 1.223-.145-.262-.31-.602-.505-.884-.116.192-.261.476-.387.622a8.838 8.838 0 01-.098-.864c-.019-.505-.048-1.155-.019-1.292.048-.261.456-1.29 1.32-2.233 1.03-1.126 2.088-3.29 2.398-3.96.31-.67 1.631-3.456 1.631-3.456h1.01L77.1 22.184s-.883 1.825-1.34 2.496c-.456.67-1.417 2.593-1.845 3.34.31-.408.573-.621.884-1.01.3-.272 1.135-1.446 1.135-1.446v-.002z" fill="#8C6228"/><path fill-rule="evenodd" clip-rule="evenodd" d="M81.573 13.845a4.184 4.184 0 01-.768 1.388c-.602.719-1.894 1.68-2.524 2.446-.576.748-1.728 2.787-1.205 5.204.192-.524.554-1.563 1.515-2.738.962-1.175 1.99-2.524 2.496-3.572.505-1.059.572-1.893.572-1.893l.192-.243-.116-.553-.165-.04h.003z" fill="#CBA94C"/><path fill-rule="evenodd" clip-rule="evenodd" d="M101.233 78.243s-.388-1.058-.505-2.02c-.116-.961.192-1.152-.165-2.252-.214-.67-.601-.576-.699-.67-.097-.094-.165-1.106-.146-1.66.02-.554-.019-1.272-.116-1.583-.145-.116-.243-.214-.456-.932-.243-.718-.36-1.077-.476-1.29-.116-.214-.457-.408-.457-.622 0-.427.389-.65.389-.768-.02-.242-.31-.048-.389-.116-.097-.117.243-.816.117-.913-.048-.048-.388.36-.476.243-.097-.117-.214-1.272-.388-2.039-.165-.747-.34-1.29-.36-1.514-.019-.214-1.34-3.981-1.66-4.894a23.133 23.133 0 01-.65-2.349c-.097-.456-.165-1.389-.214-1.292-.048.098-.019.573-.097.554-.068-.02-.31-1.68-.388-1.942-.068-.262-.476-1.152-.576-1.796-.097-.65-.31-2.35-.456-3.505-.146-1.155-.214-1.63-.214-1.92a11.977 11.977 0 00-.116-2.116c-.192-1.224-.576-2.71-.913-3.573-.65-1.631-2.379-5.806-2.688-6.845 0-.262.34-.116.34-.116s.844 2.116 1.465 3.747c.603 1.631 1.176 3.068 1.321 3.214.117.145 1.03 1.747 1.437 4.369.408 2.621.553 5.039.796 6.65.117.768.214 1.583.457 2.398.261.884.67 1.797 1.204 3.194.456 1.175.796 2.156.98 3 .214 1.079.214 1.894.34 2.428.117.457.291 1.369.7 2.688a72.963 72.963 0 001.416 4.078c.797 2.116 1.152 3.883 1.273 4.825.106.971.466 4.33.368 5.34l.002-.001z" fill="#A88F33"/><path fill-rule="evenodd" clip-rule="evenodd" d="M81.622 13.728l-.049.117s.145.048.117.243a5.73 5.73 0 01-.05.796c-.047.34-.144.601-.164.815 0 .457.068.98-.576 2.282-.192.359-.31.67-.407.883-.243.524-.291.602-.505.845.34-.192 1.563-.96 2.184-.845-.427.243-1.078.719-1.485 1.34.097.02.505.098 1.152 0 1.077-.165 2.281-.553 3.34-.476 1.155.068.699-1.388.699-1.388l-1.334-2.932-2.524-1.776-.398.097z" fill="#BE9C44"/><path fill-rule="evenodd" clip-rule="evenodd" d="M88.204 35.69s-1.126-1.127-1.583-4.992c-.456-3.884-.359-9.6-.359-9.6l-.912-2.233s-.192-1.486-.67-2.039c-.478-.553-1.417-1.485-1.845-1.941-.427-.457-.912-1.078-1.204-1.175.146-.243.796-1.612 3.291-1.631 2.495-.02 3.264 1.369 3.525 1.874.26.505 1.436 2.688 1.873 6.848.408 4.155.428 4.466.36 5.902-.049.797-.311 2.641-.768 4.612-.418 1.67-.874 3.534-1.71 4.378l.002-.003z" fill="#A17C34"/><path fill-rule="evenodd" clip-rule="evenodd" d="M84.672 39c.376.027.75-.057 1.078-.243.359-.02 1.66.146 2.66-1.126.068.29.243 1.078-.214 1.777.243-.243.602-.34.65-.408.02.36.36 1.466-1.077 4.155.388-.427.844-.407 1.252-.456.02.505.291 2.203-.427 3.117-.475.621-1.252.426-1.252.426a2.433 2.433 0 000-.407c-.02-.263-.117-.524-.049-.699a3.484 3.484 0 01-1.01-.7c-.844-.796-1.941-2.154-2.019-3.164-.097-1.127.913-1.37.913-1.37a1.08 1.08 0 01-.214-.262c-.048-.164-.097-.427-.29-.64z" fill="#8C6228"/><path fill-rule="evenodd" clip-rule="evenodd" d="M77.184 26.787s-.049-.068-.31.242c.048-.31.097-.602.116-.884a3.07 3.07 0 01.476-.718c-.146.29-.243.553-.243.553s.36-.67.884-1.078c.359-.29.815-.426 1.01-.698.213-.292.164-.34.213-.389 0 0 .476-.31 1.204-1.224.097-.116.243-.242.34-.359.165-.067.553-.242 1.01-.476.476-.262 1.01-.62 1.34-.768.65-.291 1.34-.261 1.66-.718.242-.068.504-.797.456-1.418.36.146 2.204 1.291 2.835 3.796.457 1.777-.36 4.515-.7 5.836-.34 1.32-.387 2.3-.863 2.902-.602.797-2.544 1.92-3.02 2.476-.407.457-1.63 1.612-1.582 2.447.048.621.815.96.98 1.077.166.118.165.263.476.192.311-.07.427-.214.554-.214.145.02.145.05.213.05a.697.697 0 00.146-.02s-.049.883-2.117 1.151c-.146.02-.29.068-.476.098.243-.117.389-.117.651-.476-.291-.049-1.126-.097-1.34-.165.068-.117.291-.428.475-.573.165-.145-.019-.192-.164-.116-.25.17-.49.354-.719.553-.242.213-.456.505-.845.768-.116-.389-.097-1.127.36-1.66-.117.019-.34.359-.553.29a3.094 3.094 0 01.067-1.058c.117-.437.748-1.204.748-1.204l3.048-5.447.65-4.126-6.98 1.356v.002z" fill="#92723A"/><path fill-rule="evenodd" clip-rule="evenodd" d="M77.02 27.02s-.165.116.165.34c-.049.067-.165.31-.311.475-.165.192-.34.311-.408.476-.145.34-.262.573-.262.719 0 .146-.048 1.078-.456 1.68-.146.213-.311.572-.428.815-.242.426-.456.768-.505.96-.096.34-.164 1.271-.164 1.271s.214-.262.291-.359c-.117.243-.243.505-.427.7.116-.098.456-.34 1.029-.846.796-.67 2.039-1.796 3.554-2.688-.457.165-.845.165-1.156.214.243-.242 2.427-2.806 3.573-3.048a.457.457 0 00.097-.311l-.98-.097-1.991.427-.29-1.536-1.331.806v.002z" fill="#B18E3E"/><path fill-rule="evenodd" clip-rule="evenodd" d="M80.185 35.758s-.263.261-.505.912a3.056 3.056 0 01-.476-.65c-.36-.602-.912-1.37-2.204-.933-.019-.407-.048-.621 0-.912.214-.048.864-.572 1.514-1.34.457-.524.884-1.126 1.175-1.893.193-.146.525-.388.96-.67.622-.427 1.37-1.01 1.486-1.66-.291.116-.913.408-1.845.36.36-.166.912-.34.845-1.059.145-.097.262-.165.262-.165a.96.96 0 00-.34-.049c-.02-.068-.049-.164-.214-.116-.165.048-.192.048-.213.116-.068.02-.292 0-.457.117-.165.117-.621.505-.796.573.068-.117.165-.291.165-.291s-.476.048-.816.192c-.621.214-1.34.602-2.068.98.068-.116.098-.192.146-.213.048-.022.165-.048.165-.068 0-.02-.048-.192-.02-.262.218-.461.475-.903.769-1.32.34-.457.407-1.107.407-1.107l1.486-.748 4.174-.96 2.71.165-.34 1.874-1.6 3.272-1.37 2.98-1.563 1.826-1.436 1.048h-.001z" fill="#543E26"/><path fill-rule="evenodd" clip-rule="evenodd" d="M86.952 27.648s-1.632 2.02-2.088 2.33c.291-.621 2.088-4.32 2.738-5.35-.145-.116-.34-.116.116-1.92-.388.913-.524 1.389-.844 1.631-.32.243-.36.165-.576.165a.406.406 0 00.048-.242s-1.369-.165-2.304-.165c-.935 0-2.786.505-3.816.912-.815.34-1.271.34-1.562.553-.292.243-.457.505-.603.573-.116.068-.67.243-.796.427-.116.192-.31.408-.31.456 0 .049-.049.117.097.068.048-.02.408-.214.815-.456.553-.31 1.224-.67 1.71-.883 1.387-.554 1.825-.457 2.445-.573.65-.117 1.583-.389 2.204-.389.621-.019 1.796 0 2.068.049-.116.097-.213.214-.165.621 0 .117-.097.243-.192.525a47.28 47.28 0 01-1.152 2.786c-.427.912-.912 1.68-1.152 2.155-.24.476-.768 1.728-1.29 2.398-.524.67-.797 1.078-.96 1.224-.164.146-1.34 1.009-1.253 1.32.214-.068 1.563-.576 2.543-1.68.98-1.103 1.175-1.776 1.942-2.378.767-.602 1.369-1.612 1.728-2.446.3-.777.233-1.02.611-1.71l-.002-.001z" fill="#806031"/><path fill-rule="evenodd" clip-rule="evenodd" d="M51.796 42.719s-.213.883-.7 1.32c-.475.428-1.32.796-1.416 1.515-.117.718.845 1.078.845 1.078S50 47.496 50 48.146c0 .67-.02.796.049 1.437a.64.64 0 00-.192.192s.048.621.524 1.01c.476.387.883.62 1.126.523.037.08.069.16.097.243 0 0 .36-.912.602-1.708.243-.816.456-.7.553-1.797.097-1.097 1.152-2.98 1.152-2.98l.72-1.61-1.174-.913-1.66.175z" fill="#B6903C"/><path fill-rule="evenodd" clip-rule="evenodd" d="M53.98 44.3a7.07 7.07 0 00-.668.797c-.31.428-.553.815-1.01.981-.456.166-.747.164-.718.621.029.458.456.65.699.884.262.242.476.65.36 1.107.145-.068.407-.146.65-.67.242-.524 1.939-3.719 1.939-3.719h-1.251z" fill="#685026"/><path fill-rule="evenodd" clip-rule="evenodd" d="M60.672 36.932s.145-.388 0-.67c-.146-.29-1.03-.388-1.466-.718-.457-.34-1.01-.576-1.467-.427.068-.165.34-.525.117-.602-.214-.068-1.01.29-1.223.456-.214.165-.7.359-.796.476-.097.117-.263.34-.36.243-.097-.068-.145-.243-.31-.146-.165.096-.96.747-1.107 1.126-.146.379-.476 1.224-1.466 2.184-.99.961-1.418 1.583-1.127 1.942.292.36.428.097.477.408.037.304.02.613-.049.913-.116.504-.31.98-.049 1.077.67.214 1.321-.192 1.467-.068.29.262-.166 1.204.524 1.389.7.191 1.389-.166 1.389-.166l2.543-1.368 2.447-1.291 1.252-2.477-.672-2.067-.128-.214h.004z" fill="#D4B968"/><path fill-rule="evenodd" clip-rule="evenodd" d="M58.272 42.845s-.427-.65.097-1.224c.525-.573 1.272-.815 1.563-1.174a.448.448 0 00-.214-.146c.194-.345.489-.623.845-.796-.145-.146-.34-.262-.553-.262-.476 0-.768.291-1.204.291-.427 0-.476-.214-.476-.214s.719-.067.65-.388c-.067-.34-.191-.34-.191-.34s1.388-.576 1.63-.883c.243-.307.214-.67.263-.816.164 0 1.125-.504 1.514-.29.388.213.116.795.116.795s1.176-.883 1.775-1.75c.524.049.768-.359 1.152-.359.476 0 1.224.65 1.37 2.038.096.797.242 1.253.096 2.66-.067.797-.048 2.497.192 3.34.165.67.553.603.553.603-.06.204-.177.386-.34.524-.262.242-.29.884-.262 1.126.039.178.088.353.146.524 0 0-.31.36-.388.603-.068.242-.388.407-.622.407-.233 0-.116-.02-.427 0-.31.02-.407.068-.602 0-.195-.067-.34-.146-.262-.768.068-.621-2.398-2.067-2.398-2.067l-4.032-1.437.01.003z" fill="#CCA849"/><path fill-rule="evenodd" clip-rule="evenodd" d="M53.64 48.98s.884 1.176 4.516 1.176c1.727 0 2.33-.166 2.688-.263.388-.097 1.844-.67 3.31-2.398 1.32-1.563 1.03-2.203 1.03-2.203l-.769-.117-2.496.34-7.385 3.145-.896.32h.003z" fill="#585136"/><path fill-rule="evenodd" clip-rule="evenodd" d="M56.35 49.272s-3.146.7-3.146-1.291c0-1.942 1.942-3.98 2.427-4.34.505-.36 1.71-.768 1.71-.768h2.902l.553 1.466-.242 3.165-4.205 1.767z" fill="#252211"/><path fill-rule="evenodd" clip-rule="evenodd" d="M59.252 43.466s-.601-.553-1.97.192c-1.37.746-2.476 2.304-2.544 3.72-.068 1.251 1.029 2.184 2.738 2.232 1.271.048 2.039-.097 2.427-.192-.097-.116-.602-.747-.602-.747l-.048-5.204z" fill="#C3B378"/><path fill-rule="evenodd" clip-rule="evenodd" d="M58.66 43.776s-.145-.117-.575.116c-.36.192-.884.7-1.291 1.059-.263.214-.428.31-.576.475-.603.72-1.108 1.894-.816 2.477.292.582 1.253 1.252 3.7.796l-.449-4.922.008-.001z" fill="#E6D89C"/><path fill-rule="evenodd" clip-rule="evenodd" d="M57.864 44.98s-.388.603-.388 1.564c0 .98.553 2.543 2.592 2.66 1.563.097 2.612-2.252 3.748-3.165.864-.699 1.388-.719 1.388-.719s-.883-.96-3.242-2.203c-2.33-1.253-4.943-1.418-6.36.505.67-.049 2.835-.602 2.835-.602l1.059.34-1.632 1.621z" fill="#252211"/><path fill-rule="evenodd" clip-rule="evenodd" d="M60.913 46.252c-.068-.145-.117-.34.165-.388.281-.048.407-.02.505.192.097.212.192.389.048.476-.146.078-.525 0-.719-.281v.001zm-.457-1.369s-.097.068-.048-.068c.019-.164.146-.456.456-.387.31.068.243.407.192.504-.051.098-.31.262-.505.192a.162.162 0 01-.097-.242l.002.001z" fill="#6F674D"/><path fill-rule="evenodd" clip-rule="evenodd" d="M34.176 45.504s.768.576 1.66.553c.883-.02 2.02-.931 2.544-1.514.31-.34.575-.7.863-.98.244-.243.408-.36.525-.525.165-.192.34-.553.427-.67-.214.165-.524.457-.845.65-.31.193-.98.554-1.252.651-.262.097-2.98 1.536-2.98 1.536l-.942.299z" fill="#AC924C"/><path fill-rule="evenodd" clip-rule="evenodd" d="M35.35 38.33s.427-.291 1.252-.476c.797-.192 2.398-.34 2.398-.34l1.32.576.525 1.99-.96 2.069-1.223.768-1.389-2.233-1.92-2.35-.003-.004z" fill="#9F8E57"/><path fill-rule="evenodd" clip-rule="evenodd" d="M33.622 40.107l-.457.34s.117-.213.214-.863c.096-.65.602-2.233 1.34-3.146.738-.912.718-.864.718-.864a.486.486 0 00-.388.097c.097-.215.719-.983 1.34-1.367.622-.384.864-.505 1.514-.192s.816.475 1.292.456c.476-.019.883-.524.883-.524s.097.31-.262 1.03c-.359.718-1.776 2.184-1.776 2.184l-2.952 2.019-1.466.832v-.002z" fill="#EAC970"/><path fill-rule="evenodd" clip-rule="evenodd" d="M35.806 38.088s2.136.29 2.786-.31c.02.067.097.067.097.116a.169.169 0 01-.048.096c.07-.01.142-.017.214-.019.085.026.173.042.262.049.072-.002.143-.008.214-.02a.363.363 0 01-.146.243c.097 0 .192.02.192.097s.019.31-.098.36a.44.44 0 01-.29-.02c.007.184.057.363.145.525.192.358.602.767 1.152.65 0 0 .29.699-.932 2.252-.165.214-.34.505-.553.747a2.843 2.843 0 00-.192.573s2.068-.796 2.66-2.612c.602-1.825.719-3.62.602-5.3-.02-.476-.097-.816-.213-1.059-.291-.602-1.108-.505-1.437-.165-.476.476-1.272 1.66-2.379 2.476-1.126.815-1.174.96-2.039 1.32h.003z" fill="#D7BC6B"/><path fill-rule="evenodd" clip-rule="evenodd" d="M33.243 40.71s-.408.242-.622 1.151c-.213.932.192 2.068.427 2.427.235.36.768 1.34 1.874 1.389.274-.002.545-.058.797-.165a5.033 5.033 0 001.077-.67c.476-.36.864-.67.816-.7-.117-.048-2.932-2.378-2.932-2.378l-1.059-1.181-.379.128.001-.002z" fill="#585136"/><path fill-rule="evenodd" clip-rule="evenodd" d="M35.904 44.573s.573-.048.913-.262c.34-.214-1.99-2.524-1.99-2.524l.164 2.496.913.29z" fill="#453A25"/><path fill-rule="evenodd" clip-rule="evenodd" d="M33.427 40.534s-.29.553-.29.7c-.05.475.096 1.97.213 2.445.116.505.747 1.272 1.563 1.272.505 0 1.204-.31 1.204-.388 0-.097-.718-.192-.912-.553-.117-.192-.166-.67-.192-1.152-.02-.31-.02-.65.097-.768.262-.292.31-1.127.31-1.127l.932-1.731h-1.225l-1.467.913-.233.389z" fill="#84754B"/><path fill-rule="evenodd" clip-rule="evenodd" d="M33.068 41.068s.96-1.271 1.825-1.563c.866-.292 1.253-.117 1.253-.117l-.505 1.292-.719.796.049.408s-.117 1.077.601 1.825c.72.747 1.253.719 1.564.719.311 0 1.204-.263 1.66-1.34.408-1.01.748-2.305-.068-3.602-.797-1.292-2.204-1.342-2.476-1.342-.272 0-2.408.107-3.184 2.922v.002z" fill="#252211"/><path fill-rule="evenodd" clip-rule="evenodd" d="M57.718 45.388c-.359-.165-.019-1.174.34-1.485.36-.311.816-.67 1.612-.719.291-.02.573.165.525.36-.068.359-.573.864-1.03 1.223-.63.495-1.039.805-1.447.621z" fill="#F7F7E7"/><path fill-rule="evenodd" clip-rule="evenodd" d="M38.3 39.883c.263-.019.603.192.671.477.068.31-.165.931-.67.931-.408 0-.622-.504-.622-.65a.742.742 0 01.098-.34c.019-.029.068-.369.524-.418z" fill="#F8F6DE"/><path fill-rule="evenodd" clip-rule="evenodd" d="M34.514 40.107s-.67.31-.98.96a2.547 2.547 0 00-.192 1.536c.049.242.291.844.456 1.058.165.214.389.36.554.34.165-.02.504-.457.504-.718 0-.262.02-1.37.34-1.972.282-.601-.68-1.203-.68-1.203l-.002-.001z" fill="#D4C38B"/><path fill-rule="evenodd" clip-rule="evenodd" d="M34.612 40.058c-.117.068-.31.165-.263.291.05.117.457.192.603.477.165.29.165.601.116.747.127-.06.242-.142.34-.243.214-.243.476-.572.699-.572.146 0 .291.068.428.068.213 0 .426-.068.456-.292.048-.29-.408-.553-.67-.505.048-.192.116-.475-.097-.67-.214-.194-.884.146-1.03.243-.146.098-.582.457-.582.457z" fill="#E2D59D"/><path fill-rule="evenodd" clip-rule="evenodd" d="M50.04 60.456l1.436-.424.408.291s.29.622.747.7c-.146.31-.525.575-.505.795.02.22.214.389.214.389s-1.292 2.135 1.252 4.288c-.602.242-1.368.576-1.776.768.29.067.912.192 1.174.427.263.236.263.31.505.457.243.145.388.34.34.426-.165-.097-.719-.387-.815-.116-.097.271-2.399.165-2.399.165l-3.883.748s.145-.389-.262-.748c-.476-.427-1.058.02-1.68-.456-.815-.622-.844-1.34-1.106-1.612.262-.165.796-.407 2.068-.576-.05-.097-.214-.388-.117-.65.117-.34.602-.554.456-.96.214-.049.31-.049.845-.719.505-.67.816-.815 1.204-.864.389-.048.621 0 1.34-.67.505-.475.34-.883.34-.883s.33-.107.214-.777v.001z" fill="#CBAC5A"/><path fill-rule="evenodd" clip-rule="evenodd" d="M45.796 60.672c.02-.097.098-.146.622-.097.524.048 3.844-.31 4.747-.36.913-.067 4.127-.02 5.69.311 1.564.33 3.146.719 3.912.913.768.214 1.01.29.98.388-.018.097-.191.192-.29.165-.097-.02-2.641-.796-3.427-.96-.786-.164-3.505-.602-4.992-.576-1.388.02-1.942-.02-3.116.116-1.175.146-3.117.34-3.7.263-.575-.068-.456-.068-.427-.166l.001.003z" fill="#D6BC6F"/><path fill-rule="evenodd" clip-rule="evenodd" d="M53.612 68.282s1.99 1.077 2.709 2.398c.524.98-.31 1.466-.31 1.466s1.126 0 .98.621c-.068.388-1.942 1.437-3.194 1.99-1.272.554-1.223.525-1.845.622-.602.097-2.253-.192-2.593.29-.34.484-.192.982-.097 1.06.097.067.884.165.884.165s-.165.456-1.796.504c-1.63.05-2.039.165-2.136.34-.097.165.31.068 1.058.192.748.117 1.796.192 1.796.192s-.34.291-1.223.525c-1.01.261-2.592.504-3.068.796.243.165.602.407.768.427-.408.097-.981.31-1.078.388.146.097.34.214.34.214s-.816.98-1.291 1.223c-.476.244-3.214 1.515-4.156 1.272-2.35-.621-2.64-3.194-3.213-3.388-.864-.291-1.272.29-2.04-.117.34-.243.525-.388.885-.553-.389-.192-2.399-1.466-2.399-1.466-.21-.458-.443-.906-.699-1.34-.388-.67-.96-1.563-1.388-2.35-.932-1.728-.98-2.524-1.826-3.505.146-.192.65-.165.65-.165l7.08 2.33 12.55.364 3.264-4.66 1.388.165z" fill="#DFC677"/><path fill-rule="evenodd" clip-rule="evenodd" d="M35.02 75.388c.075.085.164.157.261.214.244.165.602.36.845.65.097-.145.34-.407.768 0 .428.408.96.117 1.291.214.34.117.359.165.359.165s.192-.165.622-.34c.262-.097.572-.165.912-.261.31-.068.65-.166.884-.166.214.146.98.96 4.058-.242 2.903-1.126 3.573-1.253 4.058-1.079.05-.116.098-.34.845-.31 0-.31-.621-1.369-.621-1.369l-3.427-1.174H44l-5.621 1.029-3.115 1.777-.242.896-.002-.004z" fill="#C4A859"/><path fill-rule="evenodd" clip-rule="evenodd" d="M33.145 73.418s.068.524.845 1.078c.768.552 1.01.883 1.01.883s.145-.192.262-.388c.117-.214.214-.457.408-.524.388-.165 1.271.145 1.466.096.165-.048.116-.388.291-.388.408-.02.67.262.816.262.145 0 .504-.019.552-.096.05-.078.068-.884.622-1.273.602-.427 1.34-.242 1.536-.145 0 .145.02.505.407.524.389.02.427-.049.769.068.34.117.747-.02.931.553.165-.048.554-.097.457-.65.192-.146.36-.243.768-.816.097-.145.262-.31.388-.524.34 0 .748-.068 1.291.408-.165.116-.262.192-.31.31.142.141.271.294.387.457.146.192.244.427.428.476.408.116 1.078-.049 1.825 0 .719.048 1.32.31 1.583.475.097-.048.097-.068.34-.019.242.049.427.068.165-.243.145.068.31.214.456.068.146-.146.262-.359.67-.407.407-.049.553.019.718-.408.214-.524-.524-.524-.524-.524s.34-.311.719-.719c.456-.427.98-.98 1.107-1.66.213-1.252-1.01-1.417-1.01-1.417L46.586 70.7l-7.252-.36-6.185 3.078h-.004z" fill="#927D49"/><path fill-rule="evenodd" clip-rule="evenodd" d="M27.816 56.282s-.192.242-.31.815c-.12.573-.069.505-.166.913-.097.407-1.292 4.466-.844 5.834.448 1.37 1.224 1.874 1.709 2.981.097.243.192.388.242.602.165.718.02 1.272.214 1.99.068.243.243.525.505.816.576.602 1.515 1.174 1.92 1.582.572.602 1.388 1.826 2.427 1.942.553.068 1.34-.165 1.99-.553.576-.36.932-.864 1.536-1.152.427-.214.883-.291 1.291-.389.845-.165 1.612-.192 2.069-.097.698.146 2.349.651 3.264.651a8.878 8.878 0 002.116-.291c1.388-.408 3.068-1.107 4.175-1.418.65-.192 1.174-.242 1.709-.359.912-.214 1.679-.505 2.116-1.058-.291-.34-.65-.864-2.593-.845-2.203.048-4.747 1.272-6 1.466-1.252.195-1.795.36-3.194-.146-1.37-.51-1.416-.847-1.416-.847s-1.44-1.007-2.042-3.573c-.602-2.567 0-4.437 1.564-6.214.407-.456.31-.864.31-.864s1.03-1.388.748-2.688c-.31-1.292-2.301-1.03-2.301-1.03l-11.039 1.932z" fill="#6E6342"/><path fill-rule="evenodd" clip-rule="evenodd" d="M29.476 60.602a1.007 1.007 0 00-.117.525c.02.261.097.601.883 1.368.67.67.525 1.417.525 1.417s.337.068 1.252-.36c.719-.34.96.263.96.263.21-.11.436-.183.67-.214.212-.02.418-.085.602-.192 0 0 .845.864 1.583 1.271.67.36 1.058.603 1.388.36.31-.214.31-.65.29-.845a2.521 2.521 0 00-.29-.505c-.214-.31-.553-.67-.576-.96-.048-.67.505-1.466.388-1.66-.117-.194-.553-.242-1.63.146-1.117.369-5.933-.612-5.933-.612l.005-.002z" fill="#39331F"/><path fill-rule="evenodd" clip-rule="evenodd" d="M32.02 64.942s-.554-.524-.36-3.068c.235-.004.47.02.699.068 0 0 .301 1.97-.34 3z" fill="#292311"/><path fill-rule="evenodd" clip-rule="evenodd" d="M28.078 54.34a1.56 1.56 0 00.214-.192c-.192.359-1.079 1.796-.36 4.058.719 2.252 2.524 3.931 4.748 4.01 2.223.078 3.392-1.01 4.728-2.641.524-.65 1.126-1.466 1.66-2.02.796-.864 1.418-1.106 1.418-1.941 0-1.709-1.748-2.476-4.32-3.243-2.574-.767-4.894-.672-6.098-.147-1.175.572-1.68 1.174-1.99 2.116z" fill="#252211"/><path fill-rule="evenodd" clip-rule="evenodd" d="M36.34 65.709l.192-.098s.048-.768.359-.747c.31.049.456.457.427.602-.02.145-.097.389-.408.36-.408.009-.572-.117-.572-.117h.002z" fill="#3F3824"/><path fill-rule="evenodd" clip-rule="evenodd" d="M35.476 62.447s.192-.068.427.165c.192 0 1.029-.098 1.291.068.263.165.34.31.34.31s-.98.214-1.515 0c-.543-.184-.543-.543-.543-.543z" fill="#2D2815"/><path fill-rule="evenodd" clip-rule="evenodd" d="M39.796 62.592c0-.049-.524-.408-1.077-.525-.098-.019-.117.049-.192.049-.049-.02-.068-.165-.068-.165l-.315.165s-.049.068.116.192c.146.117.389.214.457.408.068.194.068.262.097.291.02.02.359 0 .524-.097.165-.097.476-.256.456-.32l.002.002z" fill="#82764F"/><path fill-rule="evenodd" clip-rule="evenodd" d="M34.894 64.563s.096-.67.747-.699c.67-.048.796.602.796.602l-.388.389c0-.01-.291-.418-1.152-.292h-.003z" fill="#2D2816"/><path fill-rule="evenodd" clip-rule="evenodd" d="M39.117 61.68s-.36.388-1.155.504c-.068-.097-.214-.29 0-.601.213-.31.456-.408.698-.311a.568.568 0 01.457.407z" fill="#574F35"/><path fill-rule="evenodd" clip-rule="evenodd" d="M40.582 62.155c.02-.097-.048-.116 0-.165.048-.048.312-.145.36-.097.02.02 0 .097 0 .192s0 .192-.048.262c-.068.097-.262.146-.36.117-.097-.029-.116-.165-.116-.192.048-.02.164-.068.164-.117zm1.658-1.048c0-.048.165-.146.262-.146.146 0 .146.117.166.146.048.02.048-.02.096.068.049.088.117.242.068.34-.05.097-.242.164-.29.145-.068-.049-.282-.485-.302-.553z" fill="#82764F"/><path fill-rule="evenodd" clip-rule="evenodd" d="M38.903 62.379s.214.048.505.291c-.097.068-.243.145-.243.145s-.02-.223-.262-.437z" fill="#6E6342"/><path fill-rule="evenodd" clip-rule="evenodd" d="M38.428 60.242c-.049-.048.145-.164.261-.145.117.02.166.097.292.117.126.019.145-.049.192-.098.046-.048.213-.019.242 0a.54.54 0 01.049.068.269.269 0 01.096-.192.307.307 0 01.263-.048c.019.067.116.31.097.359-.02.048-.31.117-.36.067.049.118.263.36.292.408.028.048-.214.165-.31.146-.136-.01-.972-.495-1.117-.68l.003-.002zm1.271-1.611a.226.226 0 00-.097-.117c-.068-.019-.291 0-.291.117 0 .116.192.768.407 1.107.244.34.408.62.573.699a.225.225 0 00.292-.097c.019-.049.067-.408.048-1.253-.02-.845-.048-1.66-.097-1.709-.049-.048-.243-.048-.31.05-.068.096-.505 1.058-.525 1.203z" fill="#585136"/><path fill-rule="evenodd" clip-rule="evenodd" d="M38.835 63.602s-.34-.214-.67-.068c-.31.146-.291.719-.291.719a.46.46 0 00.427-.049c.214-.145.486-.388.534-.601v-.001z" fill="#574F35"/><path fill-rule="evenodd" clip-rule="evenodd" d="M39.476 64.37c-.02-.193-.192-.193-.192-.292a.218.218 0 01.213-.165c.097 0 .192.116.311.192.117.068.291.192.31.34.02.148-.192.553-.426.553-.235 0-.166-.438-.214-.631l-.002.002zm1.874-.263s-.389.116-.36 0c.029-.117.117-.145.243-.145a.383.383 0 01.243-.118.21.21 0 01.145.049s.263-.117.34-.049c.078.068.02.068.068.146a.683.683 0 01.117.291c0 .078-.291.243-.525.214-.271-.058-.223-.34-.271-.388zm2.262-.437s.116.067.02.146c-.068.067-.408.192-.7.213-.291 0-.553.048-.553-.048 0-.097.242-.291.388-.34a.31.31 0 01.243-.117c.117 0 .572-.048.699-.068.116-.02.214.048.145.146-.029.068-.242.068-.242.068zm.67-2.998s-.146.31-.31.31c-.166-.019-.166-.068-.166-.116 0-.068.165-.243.146-.291-.048 0-.166 0-.146-.117 0-.097.165-.214.31-.192a.64.64 0 01.39-.145c.164 0 .31.048.31.145 0 .097-.193.31-.263.36-.077.077-.175.128-.271.048v-.002zm-2.214 5.737s-.192.02-.192.117c0 .049.048.049.116.02a.529.529 0 00.117-.02c.02.02.02.116.165.116a.922.922 0 00.34-.116c.116-.048.214-.097.214-.192-.049-.165-.146-.243-.292-.243a.387.387 0 00-.213.048s-.049-.097-.214 0c-.165.098-.146.098-.097.146.087.078.058.128.058.128l-.002-.004zm-1.097 1.01c0-.048.243-.145.31-.116.068.02.262.388.262.427 0 .048-.242.165-.34.165-.097 0-.262-.165-.262-.192 0-.02.117-.048.117-.068.029-.048-.087-.165-.087-.214v-.002zm-.768-1.417c.049-.02.049-.068.116-.117a.167.167 0 01.146-.019.236.236 0 01.165-.117c.117-.02.214 0 .192.049 0 .146.098.242.098.359 0 .116-.068.262-.31.36-.243.067-.573.067-.622.048-.049-.02-.097-.214-.049-.311.049-.097.185-.204.263-.252h.001z" fill="#82764F"/><path fill-rule="evenodd" clip-rule="evenodd" d="M40.512 66.068s-.165.097-.165.146a.433.433 0 00-.02.145c0 .029.215-.02.243-.049.01-.019-.058-.192-.058-.242z" fill="#6E6342"/><path fill-rule="evenodd" clip-rule="evenodd" d="M39.068 65.612c.097.02.262 0 .388.048.097.049.165.146.068.263-.097.116-.192.29-.408.261-.242-.019-.475-.145-.475-.242a.465.465 0 01.116-.34c.097-.078.145-.029.31.01h.001z" fill="#585136"/><path fill-rule="evenodd" clip-rule="evenodd" d="M38.952 65.709s-.31.242-.389.36c-.097.116-.573.718-.718.844.048-.085.103-.167.165-.243a.993.993 0 00-.408.524c-.116.36.65.554 1.155.7.505.146.7.192.7.192a5.42 5.42 0 01-.477-.883c-.191-.457-.29-.505-.165-.72.098-.213.244-.358.244-.523-.059-.154-.107-.251-.107-.251z" fill="#574F35"/><path fill-rule="evenodd" clip-rule="evenodd" d="M27.884 66.476a.59.59 0 00.213 0c.146-.02 1.66-.576 3.243-.476a17.4 17.4 0 013.505.576c1.99.524 4.466 1.563 6.068 2.156.427.164.845.456 1.152.572 1.223.476 1.271.476 1.99.602.845.116 1.709-.165 2.612-.36 1.106-.242 3-.359 4.66-.601a9.521 9.521 0 001.583-.36s-1.32 1.32-4.486 1.797c-1.28.194-2.58.21-3.864.048-1.01-.097-1.68-.243-2.184-.388-.573-.166-1.748-.603-3.194-.96-1.01-.263-2.137-.457-3.428-.7-3.184-.582-6.64-1.252-7.872-1.902l.002-.004z" fill="#252211"/><path fill-rule="evenodd" clip-rule="evenodd" d="M24.31 60.476a55.36 55.36 0 01-2.378 1.873l-2.398 1.843c-.815.602-1.611 1.223-2.427 1.825a45.175 45.175 0 01-2.496 1.728c.768-.65 1.582-1.252 2.398-1.844.815-.592 1.66-1.173 2.447-1.773l2.398-1.845c.825-.602 1.621-1.223 2.456-1.806zm-4.242 6.796s.864-.719 1.942-1.728c1.34-1.252 2.98-2.854 3.504-3.145l-5.447 4.874z" fill="#CFB66C"/><path fill-rule="evenodd" clip-rule="evenodd" d="M20.068 67.272a33.31 33.31 0 011.34-1.253l.699-.602c.214-.192.457-.407.67-.62.427-.428.845-.885 1.272-1.321a8.17 8.17 0 01.67-.622 1.8 1.8 0 01.388-.262c.117-.068.243-.192.407-.214-.096.146-.213.214-.31.34-.117.097-.214.214-.31.31-.214.214-.457.408-.67.603-.457.388-.932.768-1.389 1.174-.456.406-.883.845-1.34 1.252-.495.418-.951.826-1.427 1.216v-.001zm5.806-3.884s-3.165 3.098-3.816 3.602l3.816-3.602z" fill="#CFB66C"/><path fill-rule="evenodd" clip-rule="evenodd" d="M25.874 63.388c-.285.33-.59.641-.914.932l-.96.913c-.31.31-.602.621-.932.931-.34.292-.65.576-1.01.845l.932-.912c.311-.31.651-.572.981-.883l.932-.913c.32-.32.631-.631.971-.913zm.145 1.68a20.19 20.19 0 01-1.029 2.378c-.815 1.632-2.038 3.67-2.573 4.71l3.602-7.089z" fill="#CFB66C"/><path fill-rule="evenodd" clip-rule="evenodd" d="M26.02 65.068c0 .36-.098.67-.215.98a9.645 9.645 0 01-.387.913 15.67 15.67 0 01-.477.884c-.165.282-.359.572-.505.864l-.98 1.728c-.34.576-.67 1.155-1.03 1.709.243-.622.574-1.204.885-1.777.34-.576.65-1.152.96-1.748.15-.296.287-.6.407-.912.146-.31.29-.602.408-.883.145-.31.262-.603.408-.884.164-.301.3-.592.524-.874h.001z" fill="#CFB66C"/><path fill-rule="evenodd" clip-rule="evenodd" d="M29.476 73.03s-.96 1.27-.864 2.882c.262-.844.592-2.135.864-2.883zm.912 1.274s-.34 3.456-.621 5.155c.398-1.964.475-1.799.621-5.155zm6.36 5.36s-1.437 4.223-1.467 5.397c.311-1.207.913-3.673 1.466-5.4v.002z" fill="#DEC270"/><path fill-rule="evenodd" clip-rule="evenodd" d="M40.107 72.768s2.33 3.844 4.078 7.126c-.473-1.651-1.56-4.68-4.078-7.126z" fill="#CBAF59"/><path fill-rule="evenodd" clip-rule="evenodd" d="M46.37 78.427a70.679 70.679 0 013.455 6.981c-.194-1.65-.718-4.475-3.456-6.98z" fill="#E3C677"/><path fill-rule="evenodd" clip-rule="evenodd" d="M64.777 84.096c.388-.243 1.155-1.563 1.825-1.893.67-.34 1.175-.408 1.777-1.078.602-.7.768-1.126 2.087-1.68 1.845-.796.576-1.825.576-1.825.203-.2.42-.385.65-.553.476-.36 1.03-.796.981-1.563-.068-1.291-.31-3.165-1.369-4.253 1.03-.214 3-.359 4.224-.67 1.417-.359 2.068-.864 2.068-.864s-.815-1.388.505-2.786c1.32-1.397 2.398-2.233 3.194-3.796-.912-.117-2.304-.602-5.854.747.191.09.376.194.553.31 0 0-2.184.603-2.98 1.273-1.389 1.174-1.564 2.136-3.068 2.855-1.505.718-3.02.524-4.272 1.106-1.252.582-1.437 1.078-1.894 1.291.098.117-.019.31.166.476-.117.165-.797 1.272-1.486 1.272.068.262.65.456.65.456s-.426.311-1.514.388c.553.576 1.078 1.204 2.524 2.117-.116.243-.602.602-.407 1.059.213.456.768 1.077 2.98 1.582-1.126.048-2.446.31-4.224.068-1.776-.214-2.068-.34-3.165-.068.117.117.427.117.7.427-.292.02-2.117-.214-2.739.602-.65.845-.932 2.233-.883 3.165-.34.165-.67.457-.505 1.059.165.602 1.03.796 1.583 1.174.553.408.601.553 1.126.457.553-.117 1.369-.67 1.845-.67s.815.36.815.36 1.292-.622 1.418-.506c.116.117.019.864.145.98.128.088 1.583-.776 1.971-1.019h-.003z" fill="#ECD592"/></svg>