<svg width="120" height="120" fill="none" xmlns="http://www.w3.org/2000/svg"><circle cx="60" cy="60" r="60" fill="#fff"/><path fill-rule="evenodd" clip-rule="evenodd" d="M60 0c33.14 0 60 26.86 60 60s-26.86 60-60 60S0 93.14 0 60 26.86 0 60 0zm28.663 31.212c-3.482-3.481-9.202-3.481-12.684 0a9.078 9.078 0 00-2.549 7.772c.124.933.062 1.928-.373 2.798a4.849 4.849 0 01-2.611 2.363c-1.12.435-2.425.435-3.544-.124-6.467-2.985-14.239-1.617-19.337 3.482-5.099 5.036-6.467 12.808-3.482 19.336a4.56 4.56 0 01.124 3.607c-.373 1.057-1.181 1.99-2.362 2.549-.622.31-1.244.435-1.928.435-.31 0-.622-.062-.933-.124h-.124c-2.798-.373-5.534.497-7.585 2.549a8.99 8.99 0 00-2.612 6.342c0 2.425.933 4.663 2.612 6.342 3.482 3.482 9.202 3.482 12.684 0 1.99-2.052 2.984-4.974 2.487-7.834v-.436c-.063-.808.124-1.554.435-2.3.497-1.12 1.43-1.927 2.55-2.363a4.41 4.41 0 013.543.125c6.466 2.984 14.238 1.616 19.337-3.482 5.098-5.037 6.466-12.87 3.482-19.337-.498-1.12-.56-2.363-.125-3.482a4.735 4.735 0 012.425-2.611c.87-.373 1.741-.498 2.55-.373h.435c2.798.373 5.533-.498 7.585-2.55 3.482-3.482 3.482-9.202 0-12.684zM67.088 52.974c3.855 3.917 3.855 10.197 0 14.052-3.855 3.855-10.135 3.855-14.052 0-3.855-3.917-3.855-10.197 0-14.052 3.917-3.855 10.197-3.855 14.052 0zm24.87-24.932c5.285 5.347 5.285 13.927 0 19.212-1.99 1.927-4.414 3.17-6.901 3.793 3.544 9.575 1.243 20.518-6.093 27.855-5.037 5.036-11.814 7.71-18.715 7.71-3.11 0-6.218-.56-9.202-1.68a13.638 13.638 0 01-3.73 7.026c-5.348 5.285-13.928 5.285-19.213 0-5.285-5.347-5.285-13.927 0-19.212 1.99-1.99 4.414-3.233 6.963-3.73-3.668-9.638-1.367-20.705 5.97-28.042 7.336-7.337 18.341-9.637 27.979-6.031.56-2.487 1.74-4.912 3.73-6.901 5.347-5.286 13.928-5.286 19.213 0z" fill="#38A2FF"/></svg>