<svg width="120" height="120" fill="none" xmlns="http://www.w3.org/2000/svg"><path fill-rule="evenodd" clip-rule="evenodd" d="M60 0c33.132 0 60 26.868 60 60 0 33.132-26.868 60-60 60-33.132 0-60-26.868-60-60C0 26.868 26.868 0 60 0z" fill="#203091"/><path d="M69.851 41.548c0-13.766-6.636-25.626-11.719-29.51 0 0-.353-.21-.353.354-.424 26.615-13.908 33.886-21.39 43.558-17.156 22.45-1.201 47.018 15.036 51.536 9.107 2.542-2.118-4.518-3.53-19.344C46.201 70.14 69.852 56.445 69.852 41.55z" fill="#fff"/><path d="M78.746 50.656c-.07-.071-.211-.071-.353 0l-.07.07c-.283 3.318-3.954 10.519-8.542 17.085-15.602 22.308-6.707 33.039-1.695 38.828 2.895 3.389 0 0 7.272-3.459.564-.283 14.12-7.484 15.602-23.792 1.482-15.884-8.613-25.838-12.214-28.733z" fill="#fff"/></svg>