<svg width="120" height="120" fill="none" xmlns="http://www.w3.org/2000/svg"><circle cx="60" cy="60" r="60" fill="#EDF0F4"/><path d="M60.258 20C43.575 20.067 30.067 33.575 30 50.258c0 3.341.54 6.66 1.596 9.829a4.328 4.328 0 005.322 2.652 4.307 4.307 0 002.572-5.304 19.966 19.966 0 01-1.177-7.713c.364-12.05 10.425-21.524 22.475-21.16 12.05.363 21.524 10.425 21.16 22.475-.341 11.28-9.225 20.442-20.493 21.128 0 0-4.248.259-6.36.517-.779.112-1.551.265-2.314.46a.278.278 0 01-.395.003l-.004-.003a.278.278 0 010-.339l.658-3.587 3.989-17.94a4.148 4.148 0 10-8.112-1.736S39.43 93.453 39.43 93.852a3.987 3.987 0 002.952 4.863h.22a3.984 3.984 0 004.857-2.862.87.87 0 00.025-.109 1.021 1.021 0 010-.198c.118-.517 1.315-6.36 1.315-6.36a10.764 10.764 0 018.91-8.472c.915-.14 4.764-.399 4.764-.399 16.62-1.656 28.749-16.472 27.09-33.092C88.048 32.066 75.492 20.396 60.257 20z" fill="#1E1E1E"/><path d="M62.093 89.767a5.042 5.042 0 00-5.964 3.91c-.007.025-.01.05-.016.076a5.022 5.022 0 003.848 5.98h.14a4.94 4.94 0 005.965-3.644c.006-.02.01-.042.016-.06v-.278a5.229 5.229 0 00-3.99-5.984z" fill="#E6007A"/></svg>