<svg width="120" height="120" fill="none" xmlns="http://www.w3.org/2000/svg"><path d="M118.191 74.514c-8.013 32.143-40.569 51.705-72.716 43.69C13.342 110.19-6.22 77.632 1.797 45.492 9.807 13.345 42.363-6.218 74.5 1.795c32.144 8.014 51.705 40.575 43.691 72.72z" fill="#50AF95"/><path fill-rule="evenodd" clip-rule="evenodd" d="M67.592 66.802c-.424.032-2.616.163-7.505.163-3.89 0-6.65-.117-7.62-.163-15.029-.66-26.246-3.277-26.246-6.41 0-3.132 11.217-5.745 26.247-6.416v10.22c.982.071 3.797.237 7.686.237 4.667 0 7.003-.194 7.424-.233V53.983c14.998.668 26.19 3.284 26.19 6.41 0 3.125-11.189 5.741-26.19 6.406l.014.003zm0-13.876v-9.147h20.93V29.832H31.538v13.947h20.926v9.143c-17.009.781-29.8 4.15-29.8 8.188s12.791 7.403 29.8 8.188v29.31H67.59v-29.32c16.97-.782 29.74-4.147 29.74-8.181 0-4.034-12.76-7.4-29.74-8.185l.003.004z" fill="#fff"/></svg>