<svg width="120" height="120" fill="none" xmlns="http://www.w3.org/2000/svg"><circle cx="60" cy="60" r="60" fill="url(#paint0_linear_1_2733)"/><mask id="a" style="mask-type:luminance" maskUnits="userSpaceOnUse" x="0" y="0" width="120" height="120"><circle cx="60" cy="60" r="60" fill="#fff"/></mask><g mask="url(#a)"><path d="M85.38 0h63.96l.06 126-126.96-.78L85.38 0z" fill="url(#paint1_linear_1_2733)"/></g><path fill-rule="evenodd" clip-rule="evenodd" d="M98 33l-34.526 68.17-.034.069-.017.041c-.507 1.166-1.489 1.709-2.85 1.72h-.103c-1.396 0-2.4-.553-2.907-1.756l-.002-.005-.031-.064L23 33.06h17.106l.153.001.108.001.069.001.066.002.064.002.062.002.06.003.058.003.028.002.056.004.053.004.027.003.052.005.025.003.05.006.048.007.048.008.046.008.046.01c.152.03.292.075.44.136.37.153.68.404.903.74a2.2 2.2 0 01.268.562l.009.027 17.624 34.614 17.586-34.592.002-.006.006-.023c.175-.634.633-1.098 1.236-1.345l.028-.011c.428-.17.925-.237 1.54-.237H98zm-69.92 3.195l32.219 63.558.054.11h.031l.042.002h.149l.042-.001.031-.002.051-.102 32.224-63.625H80.778L60.472 76.08 40.163 36.195H28.08z" fill="#fff"/><path d="M70.315 33c-1.33 0-1.754.181-2.359 1.39L53.38 62.967 38.802 34.39c-.302-1.088-1.028-.786-2.359-.786H24.104c-.604 0-1.21.665-1.088 1.088L50.96 89.49c.423.966 1.21 1.51 2.42 1.51h.06c1.21 0 2.056-.483 2.42-1.51l28.004-55.1c.181-.423.181-.725 0-.967-.182-.242-.605-.423-1.089-.423h-12.46z" fill="#fff"/><defs><linearGradient id="paint0_linear_1_2733" x1="-41.46" y1="25.08" x2="-41.46" y2="108" gradientUnits="userSpaceOnUse"><stop stop-color="#5B62FE"/><stop offset="1" stop-color="#3831AB"/></linearGradient><linearGradient id="paint1_linear_1_2733" x1="-8760.69" y1="18.45" x2="-8760.69" y2="103.752" gradientUnits="userSpaceOnUse"><stop stop-color="#1F1B55" stop-opacity=".98"/><stop offset="1" stop-color="#493ED1"/></linearGradient></defs></svg>