<svg width="120" height="120" fill="none" xmlns="http://www.w3.org/2000/svg"><path d="M119.986 60.002c0 33.131-26.862 59.993-60.008 59.998C26.858 120-.005 93.133 0 59.998-.01 26.862 26.852 0 59.988 0c33.136 0 59.998 26.867 59.998 60.002z" fill="#EAB300"/><path fill-rule="evenodd" clip-rule="evenodd" d="M83.595 45.304c-.772-8.035-7.709-10.728-16.474-11.496V22.657h-6.783V33.51c-1.78 0-3.605.034-5.414.072V22.657H48.14l-.005 11.141-.072.002c-1.444.028-2.865.056-4.248.056v-.034l-9.355-.005v7.249s5.011-.096 4.925-.005c2.75 0 3.643 1.594 3.902 2.971v12.702c.192 0 .437.01.715.047h-.715l-.005 17.795c-.12.864-.629 2.242-2.549 2.246.087.077-4.93 0-4.93 0l-1.348 8.103h8.832c.996 0 1.983.01 2.96.021h.002c.632.007 1.26.014 1.882.017l.004 11.276h6.778V85.083c1.858.039 3.658.053 5.42.053l-.005 11.103h6.783V84.987c11.405-.652 19.397-3.528 20.386-14.242.802-8.626-3.255-12.48-9.73-14.036 3.94-1.996 6.403-5.525 5.827-11.405zm-9.494 24.107c0 7.738-12.17 7.562-17.72 7.482a96.25 96.25 0 00-1.308-.013V61.937c.468 0 1.04-.012 1.686-.026 5.706-.129 17.342-.39 17.342 7.5zM56.207 55.119c4.645.073 14.735.232 14.735-6.786.004-7.183-9.719-6.925-14.473-6.8-.535.015-1.008.027-1.396.027v13.546c.323 0 .706.006 1.134.013z" fill="#fff"/><path d="M43.298 56.436h1.008v.744h-1.008v-.744z" fill="#fff"/></svg>