<svg width="128" height="128" fill="none" xmlns="http://www.w3.org/2000/svg"><g filter="url(#filter0_d_1_471)"><circle cx="64" cy="60" r="60" fill="#2E3148"/><circle cx="64" cy="60" r="34.815" fill="#1B1E36"/><path fill-rule="evenodd" clip-rule="evenodd" d="M52.395 60.124c0-28.978 5.252-52.47 11.728-52.47 6.477 0 11.729 23.492 11.729 52.47 0 28.978-5.252 52.469-11.729 52.469-6.476 0-11.728-23.491-11.728-52.47zm11.057 49.755s.74.741 1.481-.247c0 0 3.48-2.965 5.963-17.04 0 0 3.227-18.517 2.733-35.06 0 0 .494-19.013-4.96-39.26 0 0-1.847-6.526-4.05-8.086a.926.926 0 00-1.187.096c-1.518 1.5-5.978 8.261-8.43 36.88 0 0-1.241 36.05 3.976 52.84 0 0 1.491 6.421 4.474 9.877z" fill="#6F7390"/><path fill-rule="evenodd" clip-rule="evenodd" d="M58.275 49.948c25.147-14.42 48.135-21.556 51.36-15.936 3.222 5.618-14.517 21.864-39.665 36.284-25.147 14.42-48.137 21.554-51.36 15.936-3.222-5.617 14.517-21.864 39.665-36.284zM20.63 84.291s-.28 1.015.955 1.17c0 0 4.302 1.544 17.746-3.3 0 0 17.67-6.413 31.773-15.077 0 0 16.738-9.035 31.576-23.847 0 0 4.753-4.848 5-7.536a.926.926 0 00-.672-.988c-2.052-.565-10.14-1.076-36.183 11.04 0 0-31.89 16.862-43.862 29.743 0 0-4.819 4.49-6.333 8.795z" fill="#6F7390"/><path fill-rule="evenodd" clip-rule="evenodd" d="M70.017 49.965c25.06 14.529 42.753 30.85 39.504 36.455-3.247 5.615-26.203-1.61-51.277-16.138-25.073-14.53-42.765-30.84-39.518-36.455 3.247-5.615 26.232 1.61 51.29 16.138zM21.413 34.581s-1.014.274-.534 1.412l.004.012s.821 4.492 11.76 13.701c0 0 14.395 12.082 28.953 19.934 0 0 16.202 9.953 36.462 15.385 0 0 6.573 1.674 9.027.55a.925.925 0 00.513-1.076c-.541-2.06-4.15-9.314-27.686-25.783 0 0-30.569-19.148-47.712-23.052 0 0-6.301-1.93-10.788-1.083z" fill="#6F7390"/><circle cx="64" cy="60" r="6.173" fill="#B7B9C8"/><ellipse cx="89.309" cy="36.296" rx="3.58" ry="3.704" fill="#B7B9C8"/><ellipse cx="30.543" cy="48.889" rx="3.58" ry="3.704" fill="#B7B9C8"/><ellipse cx="56.716" cy="94.321" rx="3.58" ry="3.704" fill="#B7B9C8"/></g><defs><filter id="filter0_d_1_471" x="0" y="0" width="128" height="128" filterUnits="userSpaceOnUse" color-interpolation-filters="sRGB"><feFlood flood-opacity="0" result="BackgroundImageFix"/><feColorMatrix in="SourceAlpha" values="0 0 0 0 0 0 0 0 0 0 0 0 0 0 0 0 0 0 127 0" result="hardAlpha"/><feOffset dy="4"/><feGaussianBlur stdDeviation="2"/><feComposite in2="hardAlpha" operator="out"/><feColorMatrix values="0 0 0 0 0 0 0 0 0 0 0 0 0 0 0 0 0 0 0.25 0"/><feBlend in2="BackgroundImageFix" result="effect1_dropShadow_1_471"/><feBlend in="SourceGraphic" in2="effect1_dropShadow_1_471" result="shape"/></filter></defs></svg>