<svg width="120" height="120" fill="none" xmlns="http://www.w3.org/2000/svg"><path d="M60 120c33.138 0 60-26.862 60-60 0-33.138-26.862-60-60-60C26.862 0 0 26.862 0 60c0 33.138 26.862 60 60 60z" fill="#141414"/><path d="M40.24 45.185l22.264-12.852a2.478 2.478 0 012.481 0l14.022 8.093c1.41.81 1.664 2.742.515 3.899l-4.752 4.78a2.475 2.475 0 01-2.996.394l-6.768-3.905a2.535 2.535 0 00-2.53 0L39 59.284v-11.95a2.48 2.48 0 011.24-2.15z" fill="#FA8C16"/><path d="M79.056 79.594l-14.078 8.122a2.464 2.464 0 01-2.474 0L40.24 74.864A2.478 2.478 0 0139 72.72V61.878l11.47-6.648v10.864c0 .888.472 1.706 1.24 2.143l10.794 6.232a2.464 2.464 0 002.474 0l6.831-3.94a2.465 2.465 0 012.99.394l4.765 4.766a2.483 2.483 0 01-.508 3.905z" fill="#fff"/></svg>