<svg width="120" height="120" fill="none" xmlns="http://www.w3.org/2000/svg"><circle cx="60" cy="60" r="60" fill="#ED1968"/><path fill-rule="evenodd" clip-rule="evenodd" d="M83.77 55.601a23.255 23.255 0 00-.489-1.83c-.063.05-.294.228-.657.508-2.543 1.96-11.596 8.934-15.51 12.295-1.88-2.448-3.76-4.801-5.64-7.154-1.88-2.354-3.76-4.707-5.64-7.155a595.35 595.35 0 014.868-3.775c3.78-2.911 7.63-5.878 11.3-9.027-5.264-6.778-10.528-13.556-16.168-20.71 0-.188-.094-.282-.188-.377-.094-.094-.188-.188-.188-.376h5.264a41.323 41.323 0 0126.32 9.79 40.65 40.65 0 019.023 10.543 34.294 34.294 0 015.264 14.309 46.568 46.568 0 01-.376 17.697 37.232 37.232 0 01-6.016 13.556 40.38 40.38 0 01-9.4 10.166 32.958 32.958 0 01-12.407 6.778c-3.384-4.142-6.392-7.907-9.4-12.05a28.73 28.73 0 01-3.008-4.141 23.149 23.149 0 0018.423-9.037 24.376 24.376 0 004.512-9.414c.7-2.858.737-6.39.113-10.596zm-35.832 45.615a36.383 36.383 0 01-13.16-6.778 43.505 43.505 0 01-9.775-10.543 42.32 42.32 0 01-6.016-13.932 41.856 41.856 0 010-18.074 49.407 49.407 0 015.64-14.309A38.822 38.822 0 0140.42 23.272a40.73 40.73 0 017.143-3.013c3.76 4.519 7.52 9.414 11.28 14.309.188.376.47.659.752.941.282.283.564.565.752.941a28.919 28.919 0 00-10.904 2.636 25.725 25.725 0 00-7.895 6.401 31.72 31.72 0 00-4.888 9.414 23.265 23.265 0 00.376 12.426l16.167-12.802c1.88 2.447 3.76 4.8 5.64 7.154s3.76 4.707 5.64 7.154a594.831 594.831 0 01-4.867 3.776c-3.78 2.91-7.632 5.877-11.3 9.026.949 1.223 1.91 2.457 2.88 3.702 4.405 5.657 8.972 11.52 13.287 17.385a40.11 40.11 0 01-16.544-1.506zm26.158-3.657a234.919 234.919 0 01-8.084-10.43l-.135-.158a25.976 25.976 0 0015.502-9.636 27.18 27.18 0 005.023-10.49c1.12-4.59.973-9.4-.428-13.913l-1.215-3.916-3.218 2.534c-1.336 1.05-5.348 4.147-7.171 5.554l-.902.696a248.78 248.78 0 00-5.925 4.726 695.307 695.307 0 00-3.866-4.869 751.9 751.9 0 01-3.887-4.895c1.457-1.13 3.21-2.481 4.419-3.414.78-.603 1.335-1.03 1.438-1.112a211.862 211.862 0 008.19-6.63l2.045-1.752-1.654-2.123c-6.155-7.93-9.686-12.46-13.171-16.903a38.49 38.49 0 0124.165 9.12 37.874 37.874 0 018.422 9.831 31.628 31.628 0 014.891 13.224c.96 5.63.843 11.274-.338 16.741a34.387 34.387 0 01-5.557 12.509 37.82 37.82 0 01-8.813 9.564 30.608 30.608 0 01-9.731 5.742z" fill="#fff"/></svg>