<svg width="120" height="120" fill="none" xmlns="http://www.w3.org/2000/svg"><circle cx="60" cy="60" r="60" fill="url(#paint0_linear_1_801)"/><path d="M42.51 39v45h37.5l-37.5-45z" fill="url(#paint1_linear_1_801)"/><path d="M5.01 84h37.5V39L5.01 84z" fill="#fff"/><path d="M12 96a61.45 61.45 0 0012 12h72a61.45 61.45 0 0012-12H12z" fill="#FC9965"/><path d="M24 108c10.02 7.53 22.5 12 36 12s25.98-4.47 36-12H24z" fill="#FF2D55"/><path d="M80.49 63v33H108L80.49 63z" fill="url(#paint2_linear_1_801)"/><path d="M80.49 84H5.01c1.86 4.29 4.23 8.31 6.99 12h68.52V84h-.03z" fill="#FFBC5B"/><path d="M53.01 96h27.48V63L53.01 96z" fill="#fff"/><circle cx="80.49" cy="39" r="15" fill="#FFC95B"/><circle cx="42.51" cy="22.5" r="7.5" fill="#FFC95B"/><defs><linearGradient id="paint0_linear_1_801" x1="60" y1="-24.852" x2="-24.852" y2="60" gradientUnits="userSpaceOnUse"><stop stop-color="#FF2D55"/><stop offset="1" stop-color="#FFBC5B"/></linearGradient><linearGradient id="paint1_linear_1_801" x1="42.497" y1="39" x2="42.497" y2="84" gradientUnits="userSpaceOnUse"><stop stop-color="#A524B3"/><stop offset="1" stop-color="#FF2D55"/></linearGradient><linearGradient id="paint2_linear_1_801" x1="80.481" y1="63" x2="80.481" y2="96" gradientUnits="userSpaceOnUse"><stop stop-color="#A524B3"/><stop offset="1" stop-color="#FF2D55"/></linearGradient></defs></svg>