<svg width="120" height="120" fill="none" xmlns="http://www.w3.org/2000/svg"><path d="M118.191 74.514c-8.013 32.143-40.569 51.705-72.716 43.69C13.342 110.19-6.22 77.632 1.797 45.492 9.807 13.345 42.363-6.218 74.5 1.795c32.144 8.014 51.705 40.575 43.691 72.72z" fill="#EDF0F4"/><path d="M46.343 20v26.657L33 60V33.343L46.343 20zm40 53.343C86.343 88.057 74.4 100 59.686 100 44.943 100 33 88.057 33 73.343V60h13.343v13.343c0 7.371 5.971 13.343 13.343 13.343 7.371 0 13.343-5.972 13.343-13.343h13.314z" fill="#242828"/><path d="M86.343 46.657L73 60H33l13.343-13.343h40z" fill="#00E8B5"/></svg>