<svg width="1440" height="821" fill="none" xmlns="http://www.w3.org/2000/svg"><g clip-path="url(#clip0_19_6)"><path d="M1194.67 570.826c-8.69 34.303-33 62.963-69.6 85.407-36.61 22.446-85.48 38.654-143.221 48.05-115.48 18.79-266.329 10.312-425.165-29.91C397.848 634.15 261.145 569.81 168.527 498.322c-46.309-35.744-81.578-73.26-103.088-110.423-21.51-37.159-29.247-73.935-20.56-108.238 8.687-34.302 32.995-62.963 69.597-85.407 36.605-22.445 85.479-38.654 143.219-48.049 115.48-18.791 266.329-10.313 425.165 29.91 158.836 40.222 295.539 104.562 388.16 176.05 46.31 35.744 81.58 73.261 103.09 110.423 21.5 37.16 29.24 73.935 20.56 108.238z" stroke="url(#paint0_linear_19_6)"/><path d="M1455.27 636.82c-12.64 49.913-48 91.598-101.22 124.229-53.22 32.632-124.26 56.189-208.17 69.843-167.82 27.307-387.025 14.985-617.826-43.461-230.8-58.447-429.45-151.94-564.048-255.83-67.299-51.945-118.566-106.475-149.839-160.503-31.271-54.025-42.534-107.518-29.895-157.431 12.64-49.913 48.006-91.598 101.221-124.228 53.218-32.632 124.259-56.19 208.17-69.843C261.484-7.712 480.689 4.61 711.49 63.056c230.8 58.447 429.45 151.94 564.05 255.83 67.3 51.945 118.56 106.475 149.84 160.503 31.27 54.025 42.53 107.519 29.89 157.431z" stroke="url(#paint1_linear_19_6)"/><path d="M1772.38 717.123c-17.45 68.907-66.27 126.441-139.7 171.466-73.43 45.028-171.45 77.527-287.2 96.362-231.51 37.669-533.895 20.669-852.263-59.95-318.368-80.622-592.396-209.588-778.075-352.905-92.84-71.659-163.573-146.891-206.724-221.441-43.15-74.548-58.705-148.383-41.255-217.29 17.449-68.908 66.271-126.441 139.701-171.467 73.432-45.027 171.446-77.526 287.203-96.362 231.511-37.67 533.892-20.671 852.26 59.95C1064.7 6.109 1338.72 135.076 1524.4 278.393c92.84 71.659 163.57 146.891 206.73 221.441 43.15 74.547 58.7 148.383 41.25 217.29z" stroke="url(#paint2_linear_19_6)"/></g><defs><linearGradient id="paint0_linear_19_6" x1="84.696" y1="259.796" x2="1080.76" y2="673.025" gradientUnits="userSpaceOnUse"><stop stop-color="#484848"/><stop offset=".491" stop-color="#484848" stop-opacity=".36"/><stop offset="1" stop-color="#484848"/></linearGradient><linearGradient id="paint1_linear_19_6" x1="-157.657" y1="184.859" x2="1289.55" y2="785.253" gradientUnits="userSpaceOnUse"><stop stop-color="#484848"/><stop offset=".491" stop-color="#484848" stop-opacity=".36"/><stop offset="1" stop-color="#484848"/></linearGradient><linearGradient id="paint2_linear_19_6" x1="-452.555" y1="93.675" x2="1543.61" y2="921.813" gradientUnits="userSpaceOnUse"><stop stop-color="#484848"/><stop offset=".491" stop-color="#484848" stop-opacity=".36"/><stop offset="1" stop-color="#484848"/></linearGradient><clipPath id="clip0_19_6"><path fill="#fff" d="M0 0h1440v821H0z"/></clipPath></defs></svg>